Interstate-Italic.ufo
<glyph name="exclam" format="1">
  <advance width="298"/>
  <unicode hex="0021"/>
  <outline>
    <contour>
      <point x="225" y="389" type="line"/>
      <point x="172" y="202" type="line"/>
      <point x="106" y="202" type="line"/>
      <point x="119" y="389" type="line"/>
      <point x="174" y="700" type="line"/>
      <point x="280" y="700" type="line"/>
    </contour>
    <contour>
      <point x="188" y="64" type="curve" smooth="yes"/>
      <point x="188" y="23"/>
      <point x="154" y="-11"/>
      <point x="113" y="-11" type="curve" smooth="yes"/>
      <point x="72" y="-11"/>
      <point x="38" y="23"/>
      <point x="38" y="64" type="curve" smooth="yes"/>
      <point x="38" y="105"/>
      <point x="72" y="140"/>
      <point x="113" y="140" type="curve" smooth="yes"/>
      <point x="154" y="140"/>
      <point x="188" y="105"/>
    </contour>
  </outline>
</glyph>
<glyph name="quotedbl" format="1">
  <advance width="490"/>
  <unicode hex="0022"/>
  <outline>
    <contour>
      <point x="495" y="700" type="line"/>
      <point x="412" y="373" type="line"/>
      <point x="337" y="373" type="line"/>
      <point x="370" y="700" type="line"/>
    </contour>
    <contour>
      <point x="274" y="700" type="line"/>
      <point x="191" y="373" type="line"/>
      <point x="116" y="373" type="line"/>
      <point x="149" y="700" type="line"/>
    </contour>
  </outline>
</glyph>
<glyph name="numbersign" format="1">
  <advance width="696"/>
  <unicode hex="0023"/>
  <outline>
    <contour>
      <point x="621" y="160" type="line"/>
      <point x="501" y="160" type="line"/>
      <point x="473" y="0" type="line"/>
      <point x="375" y="0" type="line"/>
      <point x="403" y="160" type="line"/>
      <point x="243" y="160" type="line"/>
      <point x="215" y="0" type="line"/>
      <point x="117" y="0" type="line"/>
      <point x="145" y="160" type="line"/>
      <point x="25" y="160" type="line"/>
      <point x="42" y="255" type="line"/>
      <point x="162" y="255" type="line"/>
      <point x="196" y="445" type="line"/>
      <point x="76" y="445" type="line"/>
      <point x="93" y="540" type="line"/>
      <point x="213" y="540" type="line"/>
      <point x="241" y="700" type="line"/>
      <point x="339" y="700" type="line"/>
      <point x="311" y="540" type="line"/>
      <point x="471" y="540" type="line"/>
      <point x="499" y="700" type="line"/>
      <point x="597" y="700" type="line"/>
      <point x="569" y="540" type="line"/>
      <point x="689" y="540" type="line"/>
      <point x="672" y="445" type="line"/>
      <point x="552" y="445" type="line"/>
      <point x="518" y="255" type="line"/>
      <point x="638" y="255" type="line"/>
    </contour>
    <contour>
      <point x="420" y="255" type="line"/>
      <point x="454" y="445" type="line"/>
      <point x="294" y="445" type="line"/>
      <point x="260" y="255" type="line"/>
    </contour>
  </outline>
</glyph>
<glyph name="dollar" format="1">
  <advance width="612"/>
  <unicode hex="0024"/>
  <outline>
    <contour>
      <point x="327" y="703" type="curve"/>
      <point x="344" y="800" type="line"/>
      <point x="449" y="800" type="line"/>
      <point x="431" y="695" type="line"/>
      <point x="502" y="677"/>
      <point x="552" y="637"/>
      <point x="582" y="595" type="curve"/>
      <point x="502" y="523" type="line"/>
      <point x="461" y="570"/>
      <point x="408" y="603"/>
      <point x="331" y="603" type="curve" smooth="yes"/>
      <point x="258" y="603"/>
      <point x="221" y="566"/>
      <point x="221" y="516" type="curve" smooth="yes"/>
      <point x="221" y="472"/>
      <point x="246" y="449"/>
      <point x="354" y="406" type="curve" smooth="yes"/>
      <point x="464" y="363"/>
      <point x="531" y="316"/>
      <point x="531" y="213" type="curve" smooth="yes"/>
      <point x="531" y="110"/>
      <point x="478" y="5"/>
      <point x="307" y="-3" type="curve"/>
      <point x="290" y="-100" type="line"/>
      <point x="185" y="-100" type="line"/>
      <point x="203" y="4" type="line"/>
      <point x="108" y="25"/>
      <point x="56" y="80"/>
      <point x="22" y="126" type="curve"/>
      <point x="107" y="193" type="line"/>
      <point x="145" y="144"/>
      <point x="203" y="97"/>
      <point x="299" y="97" type="curve" smooth="yes"/>
      <point x="375" y="97"/>
      <point x="422" y="133"/>
      <point x="422" y="201" type="curve" smooth="yes"/>
      <point x="422" y="247"/>
      <point x="388" y="280"/>
      <point x="283" y="320" type="curve" smooth="yes"/>
      <point x="164" y="366"/>
      <point x="112" y="410"/>
      <point x="112" y="509" type="curve" smooth="yes"/>
      <point x="112" y="614"/>
      <point x="184" y="696"/>
    </contour>
  </outline>
</glyph>
<glyph name="percent" format="1">
  <advance width="975"/>
  <unicode hex="0025"/>
  <outline>
    <contour>
      <point x="436" y="513" type="curve" smooth="yes"/>
      <point x="425" y="380"/>
      <point x="343" y="276"/>
      <point x="233" y="276" type="curve" smooth="yes"/>
      <point x="136" y="276"/>
      <point x="77" y="353"/>
      <point x="87" y="472" type="curve" smooth="yes"/>
      <point x="98" y="607"/>
      <point x="179" y="711"/>
      <point x="289" y="711" type="curve" smooth="yes"/>
      <point x="389" y="711"/>
      <point x="445" y="632"/>
    </contour>
    <contour>
      <point x="830" y="700" type="line"/>
      <point x="277" y="0" type="line"/>
      <point x="176" y="0" type="line"/>
      <point x="729" y="700" type="line"/>
    </contour>
    <contour>
      <point x="918" y="226" type="curve" smooth="yes"/>
      <point x="907" y="93"/>
      <point x="825" y="-11"/>
      <point x="715" y="-11" type="curve" smooth="yes"/>
      <point x="619" y="-11"/>
      <point x="559" y="66"/>
      <point x="569" y="185" type="curve" smooth="yes"/>
      <point x="580" y="320"/>
      <point x="661" y="424"/>
      <point x="772" y="424" type="curve" smooth="yes"/>
      <point x="871" y="424"/>
      <point x="927" y="345"/>
    </contour>
    <contour>
      <point x="348" y="514" type="curve" smooth="yes"/>
      <point x="354" y="593"/>
      <point x="331" y="627"/>
      <point x="281" y="627" type="curve" smooth="yes"/>
      <point x="226" y="627"/>
      <point x="181" y="571"/>
      <point x="174" y="472" type="curve" smooth="yes"/>
      <point x="169" y="393"/>
      <point x="191" y="360"/>
      <point x="240" y="360" type="curve" smooth="yes"/>
      <point x="296" y="360"/>
      <point x="341" y="418"/>
    </contour>
    <contour>
      <point x="831" y="227" type="curve" smooth="yes"/>
      <point x="837" y="306"/>
      <point x="813" y="340"/>
      <point x="764" y="340" type="curve" smooth="yes"/>
      <point x="708" y="340"/>
      <point x="664" y="284"/>
      <point x="657" y="185" type="curve" smooth="yes"/>
      <point x="652" y="106"/>
      <point x="674" y="73"/>
      <point x="722" y="73" type="curve" smooth="yes"/>
      <point x="778" y="73"/>
      <point x="824" y="131"/>
    </contour>
  </outline>
</glyph>
<glyph name="ampersand" format="1">
  <advance width="676"/>
  <unicode hex="0026"/>
  <outline>
    <contour>
      <point x="612" y="292" type="line"/>
      <point x="583" y="229"/>
      <point x="549" y="174"/>
      <point x="511" y="129" type="curve"/>
      <point x="590" y="0" type="line"/>
      <point x="475" y="0" type="line"/>
      <point x="438" y="57" type="line"/>
      <point x="381" y="13"/>
      <point x="316" y="-11"/>
      <point x="244" y="-11" type="curve" smooth="yes"/>
      <point x="119" y="-11"/>
      <point x="39" y="52"/>
      <point x="39" y="157" type="curve" smooth="yes"/>
      <point x="39" y="267"/>
      <point x="112" y="340"/>
      <point x="227" y="391" type="curve"/>
      <point x="212" y="415" type="line" smooth="yes"/>
      <point x="183" y="461"/>
      <point x="173" y="497"/>
      <point x="173" y="543" type="curve" smooth="yes"/>
      <point x="173" y="646"/>
      <point x="257" y="711"/>
      <point x="371" y="711" type="curve" smooth="yes"/>
      <point x="458" y="711"/>
      <point x="523" y="681"/>
      <point x="576" y="630" type="curve"/>
      <point x="510" y="553" type="line"/>
      <point x="468" y="593"/>
      <point x="422" y="615"/>
      <point x="368" y="615" type="curve" smooth="yes"/>
      <point x="312" y="615"/>
      <point x="276" y="587"/>
      <point x="276" y="543" type="curve" smooth="yes"/>
      <point x="276" y="519"/>
      <point x="284" y="494"/>
      <point x="301" y="467" type="curve" smooth="yes"/>
      <point x="462" y="209" type="line"/>
      <point x="486" y="242"/>
      <point x="509" y="282"/>
      <point x="530" y="325" type="curve"/>
    </contour>
    <contour>
      <point x="391" y="133" type="curve"/>
      <point x="273" y="318" type="line"/>
      <point x="188" y="283"/>
      <point x="144" y="234"/>
      <point x="144" y="174" type="curve" smooth="yes"/>
      <point x="144" y="124"/>
      <point x="182" y="83"/>
      <point x="263" y="83" type="curve" smooth="yes"/>
      <point x="309" y="83"/>
      <point x="351" y="103"/>
    </contour>
  </outline>
</glyph>
<glyph name="quotesingle" format="1">
  <advance width="269"/>
  <unicode hex="0027"/>
  <outline>
    <contour>
      <point x="277" y="700" type="line"/>
      <point x="195" y="373" type="line"/>
      <point x="114" y="373" type="line"/>
      <point x="146" y="700" type="line"/>
    </contour>
  </outline>
</glyph>
<glyph name="parenleft" format="1">
  <advance width="353"/>
  <unicode hex="0028"/>
  <outline>
    <contour>
      <point x="379" y="668" type="line"/>
      <point x="329" y="622"/>
      <point x="164" y="465"/>
      <point x="164" y="209" type="curve" smooth="yes"/>
      <point x="164" y="76"/>
      <point x="227" y="-35"/>
      <point x="248" y="-67" type="curve"/>
      <point x="183" y="-110" type="line"/>
      <point x="150" y="-73"/>
      <point x="58" y="52"/>
      <point x="58" y="222" type="curve" smooth="yes"/>
      <point x="58" y="500"/>
      <point x="264" y="667"/>
      <point x="328" y="716" type="curve"/>
    </contour>
  </outline>
</glyph>
<glyph name="parenright" format="1">
  <advance width="353"/>
  <unicode hex="0029"/>
  <outline>
    <contour>
      <point x="-11" y="-62" type="line"/>
      <point x="39" y="-16"/>
      <point x="204" y="141"/>
      <point x="204" y="397" type="curve" smooth="yes"/>
      <point x="204" y="530"/>
      <point x="141" y="641"/>
      <point x="120" y="673" type="curve"/>
      <point x="185" y="716" type="line"/>
      <point x="218" y="679"/>
      <point x="310" y="554"/>
      <point x="310" y="384" type="curve" smooth="yes"/>
      <point x="310" y="106"/>
      <point x="104" y="-61"/>
      <point x="40" y="-110" type="curve"/>
    </contour>
  </outline>
</glyph>
<glyph name="asterisk" format="1">
  <advance width="500"/>
  <unicode hex="002A"/>
  <outline>
    <contour>
      <point x="479" y="436" type="line"/>
      <point x="434" y="360" type="line"/>
      <point x="310" y="449" type="line"/>
      <point x="326" y="296" type="line"/>
      <point x="238" y="296" type="line"/>
      <point x="253" y="450" type="line"/>
      <point x="128" y="360" type="line"/>
      <point x="83" y="436" type="line"/>
      <point x="223" y="499" type="line"/>
      <point x="84" y="562" type="line"/>
      <point x="129" y="638" type="line"/>
      <point x="253" y="547" type="line"/>
      <point x="238" y="700" type="line"/>
      <point x="326" y="700" type="line"/>
      <point x="310" y="549" type="line"/>
      <point x="433" y="638" type="line"/>
      <point x="478" y="562" type="line"/>
      <point x="336" y="499" type="line"/>
    </contour>
  </outline>
</glyph>
<glyph name="comma" format="1">
  <advance width="254"/>
  <unicode hex="002C"/>
  <outline>
    <contour>
      <point x="179" y="139" type="line"/>
      <point x="57" y="-126" type="line"/>
      <point x="-14" y="-126" type="line"/>
      <point x="48" y="139" type="line"/>
    </contour>
  </outline>
</glyph>
<glyph name="hyphen" format="1">
  <advance width="360"/>
  <unicode hex="002D"/>
  <unicode hex="2010"/>
  <unicode hex="2011"/>
  <outline>
    <contour>
      <point x="314" y="315" type="line"/>
      <point x="64" y="315" type="line"/>
      <point x="82" y="417" type="line"/>
      <point x="332" y="417" type="line"/>
    </contour>
  </outline>
</glyph>
<glyph name="period" format="1">
  <advance width="254"/>
  <unicode hex="002E"/>
  <outline>
    <contour>
      <point x="165" y="68" type="curve" smooth="yes"/>
      <point x="165" y="25"/>
      <point x="129" y="-11"/>
      <point x="86" y="-11" type="curve" smooth="yes"/>
      <point x="43" y="-11"/>
      <point x="7" y="25"/>
      <point x="7" y="68" type="curve" smooth="yes"/>
      <point x="7" y="111"/>
      <point x="43" y="148"/>
      <point x="86" y="148" type="curve" smooth="yes"/>
      <point x="129" y="148"/>
      <point x="165" y="111"/>
    </contour>
  </outline>
</glyph>
<glyph name="slash" format="1">
  <advance width="446"/>
  <unicode hex="002F"/>
  <outline>
    <contour>
      <point x="524" y="790" type="line"/>
      <point x="57" y="-90" type="line"/>
      <point x="-46" y="-90" type="line"/>
      <point x="421" y="790" type="line"/>
    </contour>
  </outline>
</glyph>
<glyph name="zero" format="1">
  <advance width="658"/>
  <unicode hex="0030"/>
  <outline>
    <contour>
      <point x="627" y="382" type="curve" smooth="yes"/>
      <point x="609" y="152"/>
      <point x="478" y="-11"/>
      <point x="306" y="-11" type="curve" smooth="yes"/>
      <point x="133" y="-11"/>
      <point x="46" y="120"/>
      <point x="61" y="319" type="curve" smooth="yes"/>
      <point x="79" y="549"/>
      <point x="209" y="711"/>
      <point x="381" y="711" type="curve" smooth="yes"/>
      <point x="554" y="711"/>
      <point x="642" y="581"/>
    </contour>
    <contour>
      <point x="522" y="385" type="curve" smooth="yes"/>
      <point x="531" y="517"/>
      <point x="483" y="609"/>
      <point x="373" y="609" type="curve" smooth="yes"/>
      <point x="262" y="609"/>
      <point x="177" y="492"/>
      <point x="166" y="315" type="curve" smooth="yes"/>
      <point x="157" y="183"/>
      <point x="205" y="91"/>
      <point x="314" y="91" type="curve" smooth="yes"/>
      <point x="425" y="91"/>
      <point x="511" y="209"/>
    </contour>
  </outline>
</glyph>
<glyph name="one" format="1">
  <advance width="342"/>
  <unicode hex="0031"/>
  <outline>
    <contour>
      <point x="325" y="700" type="line"/>
      <point x="201" y="0" type="line"/>
      <point x="96" y="0" type="line"/>
      <point x="191" y="536" type="line"/>
      <point x="67" y="536" type="line"/>
      <point x="80" y="609" type="line"/>
      <point x="159" y="616"/>
      <point x="210" y="638"/>
      <point x="239" y="700" type="curve"/>
    </contour>
  </outline>
</glyph>
<glyph name="two" format="1">
  <advance width="629"/>
  <unicode hex="0032"/>
  <outline>
    <contour>
      <point x="591" y="534" type="curve" smooth="yes"/>
      <point x="591" y="411"/>
      <point x="522" y="362"/>
      <point x="382" y="298" type="curve" smooth="yes"/>
      <point x="259" y="242"/>
      <point x="188" y="187"/>
      <point x="160" y="102" type="curve"/>
      <point x="520" y="102" type="line"/>
      <point x="502" y="0" type="line"/>
      <point x="13" y="0" type="line"/>
      <point x="54" y="219"/>
      <point x="169" y="306"/>
      <point x="337" y="380" type="curve" smooth="yes"/>
      <point x="449" y="429"/>
      <point x="479" y="460"/>
      <point x="479" y="520" type="curve" smooth="yes"/>
      <point x="479" y="574"/>
      <point x="435" y="607"/>
      <point x="352" y="607" type="curve" smooth="yes"/>
      <point x="273" y="607"/>
      <point x="215" y="576"/>
      <point x="170" y="542" type="curve"/>
      <point x="118" y="625" type="line"/>
      <point x="183" y="679"/>
      <point x="267" y="711"/>
      <point x="359" y="711" type="curve" smooth="yes"/>
      <point x="500" y="711"/>
      <point x="591" y="647"/>
    </contour>
  </outline>
</glyph>
<glyph name="three" format="1">
  <advance width="608"/>
  <unicode hex="0033"/>
  <outline>
    <contour>
      <point x="433" y="364" type="curve"/>
      <point x="480" y="345"/>
      <point x="530" y="305"/>
      <point x="530" y="224" type="curve" smooth="yes"/>
      <point x="530" y="85"/>
      <point x="425" y="-11"/>
      <point x="251" y="-11" type="curve" smooth="yes"/>
      <point x="133" y="-11"/>
      <point x="47" y="43"/>
      <point x="-2" y="122" type="curve"/>
      <point x="84" y="184" type="line"/>
      <point x="135" y="121"/>
      <point x="182" y="93"/>
      <point x="267" y="93" type="curve" smooth="yes"/>
      <point x="363" y="93"/>
      <point x="418" y="143"/>
      <point x="418" y="225" type="curve" smooth="yes"/>
      <point x="418" y="282"/>
      <point x="377" y="313"/>
      <point x="294" y="313" type="curve" smooth="yes"/>
      <point x="250" y="313" type="line"/>
      <point x="267" y="415" type="line"/>
      <point x="319" y="415" type="line" smooth="yes"/>
      <point x="398" y="415"/>
      <point x="445" y="456"/>
      <point x="445" y="523" type="curve" smooth="yes"/>
      <point x="445" y="571"/>
      <point x="409" y="607"/>
      <point x="323" y="607" type="curve" smooth="yes"/>
      <point x="266" y="607"/>
      <point x="217" y="583"/>
      <point x="176" y="549" type="curve"/>
      <point x="115" y="625" type="line"/>
      <point x="179" y="683"/>
      <point x="256" y="711"/>
      <point x="339" y="711" type="curve" smooth="yes"/>
      <point x="469" y="711"/>
      <point x="557" y="644"/>
      <point x="557" y="540" type="curve" smooth="yes"/>
      <point x="557" y="442"/>
      <point x="491" y="387"/>
    </contour>
  </outline>
</glyph>
<glyph name="four" format="1">
  <advance width="663"/>
  <unicode hex="0034"/>
  <outline>
    <contour>
      <point x="593" y="157" type="line"/>
      <point x="500" y="157" type="line"/>
      <point x="472" y="0" type="line"/>
      <point x="370" y="0" type="line"/>
      <point x="397" y="154" type="line"/>
      <point x="22" y="154" type="line"/>
      <point x="40" y="254" type="line"/>
      <point x="476" y="700" type="line"/>
      <point x="596" y="700" type="line"/>
      <point x="516" y="250" type="line"/>
      <point x="609" y="250" type="line"/>
    </contour>
    <contour>
      <point x="476" y="582" type="curve"/>
      <point x="460" y="564"/>
      <point x="430" y="528"/>
      <point x="402" y="499" type="curve" smooth="yes"/>
      <point x="237" y="327" type="line" smooth="yes"/>
      <point x="211" y="300"/>
      <point x="175" y="265"/>
      <point x="157" y="249" type="curve"/>
      <point x="181" y="249"/>
      <point x="234" y="250"/>
      <point x="270" y="250" type="curve" smooth="yes"/>
      <point x="414" y="250" type="line"/>
      <point x="450" y="454" type="line" smooth="yes"/>
      <point x="457" y="494"/>
      <point x="471" y="556"/>
    </contour>
  </outline>
</glyph>
<glyph name="five" format="1">
  <advance width="632"/>
  <unicode hex="0035"/>
  <outline>
    <contour>
      <point x="605" y="700" type="line"/>
      <point x="588" y="600" type="line"/>
      <point x="256" y="600" type="line"/>
      <point x="212" y="427" type="line"/>
      <point x="238" y="443"/>
      <point x="281" y="461"/>
      <point x="340" y="461" type="curve" smooth="yes"/>
      <point x="488" y="461"/>
      <point x="572" y="378"/>
      <point x="572" y="254" type="curve" smooth="yes"/>
      <point x="572" y="87"/>
      <point x="453" y="-11"/>
      <point x="284" y="-11" type="curve" smooth="yes"/>
      <point x="180" y="-11"/>
      <point x="91" y="19"/>
      <point x="19" y="76" type="curve"/>
      <point x="85" y="161" type="line"/>
      <point x="145" y="118"/>
      <point x="211" y="91"/>
      <point x="290" y="91" type="curve" smooth="yes"/>
      <point x="404" y="91"/>
      <point x="461" y="155"/>
      <point x="461" y="244" type="curve" smooth="yes"/>
      <point x="461" y="319"/>
      <point x="411" y="359"/>
      <point x="318" y="359" type="curve" smooth="yes"/>
      <point x="261" y="359"/>
      <point x="217" y="335"/>
      <point x="188" y="315" type="curve"/>
      <point x="94" y="355" type="line"/>
      <point x="179" y="700" type="line"/>
    </contour>
  </outline>
</glyph>
<glyph name="six" format="1">
  <advance width="632"/>
  <unicode hex="0036"/>
  <outline>
    <contour>
      <point x="301" y="-11" type="curve" smooth="yes"/>
      <point x="149" y="-11"/>
      <point x="49" y="71"/>
      <point x="49" y="225" type="curve" smooth="yes"/>
      <point x="49" y="452"/>
      <point x="201" y="698"/>
      <point x="556" y="711" type="curve"/>
      <point x="540" y="608" type="line"/>
      <point x="364" y="600"/>
      <point x="239" y="519"/>
      <point x="187" y="388" type="curve"/>
      <point x="225" y="421"/>
      <point x="279" y="443"/>
      <point x="353" y="443" type="curve" smooth="yes"/>
      <point x="492" y="443"/>
      <point x="585" y="371"/>
      <point x="585" y="235" type="curve" smooth="yes"/>
      <point x="585" y="77"/>
      <point x="454" y="-11"/>
    </contour>
    <contour>
      <point x="478" y="229" type="curve" smooth="yes"/>
      <point x="478" y="300"/>
      <point x="426" y="343"/>
      <point x="318" y="343" type="curve" smooth="yes"/>
      <point x="229" y="343"/>
      <point x="153" y="299"/>
      <point x="153" y="211" type="curve" smooth="yes"/>
      <point x="153" y="137"/>
      <point x="203" y="89"/>
      <point x="314" y="89" type="curve" smooth="yes"/>
      <point x="411" y="89"/>
      <point x="478" y="149"/>
    </contour>
  </outline>
</glyph>
<glyph name="seven" format="1">
  <advance width="585"/>
  <unicode hex="0037"/>
  <outline>
    <contour>
      <point x="569" y="594" type="line"/>
      <point x="426" y="461"/>
      <point x="282" y="260"/>
      <point x="231" y="0" type="curve"/>
      <point x="125" y="0" type="line"/>
      <point x="171" y="241"/>
      <point x="283" y="434"/>
      <point x="444" y="598" type="curve"/>
      <point x="84" y="598" type="line"/>
      <point x="102" y="700" type="line"/>
      <point x="587" y="700" type="line"/>
    </contour>
  </outline>
</glyph>
<glyph name="eight" format="1">
  <advance width="661"/>
  <unicode hex="0038"/>
  <outline>
    <contour>
      <point x="501" y="370" type="curve"/>
      <point x="559" y="344"/>
      <point x="600" y="292"/>
      <point x="600" y="213" type="curve" smooth="yes"/>
      <point x="600" y="64"/>
      <point x="481" y="-11"/>
      <point x="319" y="-11" type="curve" smooth="yes"/>
      <point x="137" y="-11"/>
      <point x="47" y="70"/>
      <point x="47" y="191" type="curve" smooth="yes"/>
      <point x="47" y="294"/>
      <point x="115" y="359"/>
      <point x="203" y="384" type="curve"/>
      <point x="158" y="408"/>
      <point x="133" y="458"/>
      <point x="133" y="508" type="curve" smooth="yes"/>
      <point x="133" y="628"/>
      <point x="237" y="711"/>
      <point x="379" y="711" type="curve" smooth="yes"/>
      <point x="537" y="711"/>
      <point x="625" y="643"/>
      <point x="625" y="530" type="curve" smooth="yes"/>
      <point x="625" y="444"/>
      <point x="565" y="389"/>
    </contour>
    <contour>
      <point x="520" y="522" type="curve" smooth="yes"/>
      <point x="520" y="574"/>
      <point x="479" y="615"/>
      <point x="378" y="615" type="curve" smooth="yes"/>
      <point x="284" y="615"/>
      <point x="238" y="566"/>
      <point x="238" y="512" type="curve" smooth="yes"/>
      <point x="238" y="458"/>
      <point x="282" y="417"/>
      <point x="376" y="417" type="curve" smooth="yes"/>
      <point x="464" y="417"/>
      <point x="520" y="455"/>
    </contour>
    <contour>
      <point x="494" y="211" type="curve" smooth="yes"/>
      <point x="494" y="278"/>
      <point x="444" y="324"/>
      <point x="321" y="324" type="curve" smooth="yes"/>
      <point x="214" y="324"/>
      <point x="153" y="273"/>
      <point x="153" y="197" type="curve" smooth="yes"/>
      <point x="153" y="130"/>
      <point x="215" y="86"/>
      <point x="320" y="86" type="curve" smooth="yes"/>
      <point x="428" y="86"/>
      <point x="494" y="129"/>
    </contour>
  </outline>
</glyph>
<glyph name="nine" format="1">
  <advance width="632"/>
  <unicode hex="0039"/>
  <outline>
    <contour>
      <point x="362" y="711" type="curve" smooth="yes"/>
      <point x="514" y="711"/>
      <point x="614" y="629"/>
      <point x="614" y="475" type="curve" smooth="yes"/>
      <point x="614" y="248"/>
      <point x="462" y="2"/>
      <point x="107" y="-11" type="curve"/>
      <point x="123" y="92" type="line"/>
      <point x="299" y="100"/>
      <point x="424" y="181"/>
      <point x="476" y="312" type="curve"/>
      <point x="438" y="279"/>
      <point x="384" y="257"/>
      <point x="310" y="257" type="curve" smooth="yes"/>
      <point x="171" y="257"/>
      <point x="78" y="329"/>
      <point x="78" y="465" type="curve" smooth="yes"/>
      <point x="78" y="623"/>
      <point x="209" y="711"/>
    </contour>
    <contour>
      <point x="185" y="471" type="curve" smooth="yes"/>
      <point x="185" y="400"/>
      <point x="237" y="357"/>
      <point x="345" y="357" type="curve" smooth="yes"/>
      <point x="434" y="357"/>
      <point x="510" y="401"/>
      <point x="510" y="489" type="curve" smooth="yes"/>
      <point x="510" y="563"/>
      <point x="460" y="611"/>
      <point x="349" y="611" type="curve" smooth="yes"/>
      <point x="252" y="611"/>
      <point x="185" y="551"/>
    </contour>
  </outline>
</glyph>
<glyph name="colon" format="1">
  <advance width="254"/>
  <unicode hex="003A"/>
  <outline>
    <contour>
      <point x="239" y="456" type="curve" smooth="yes"/>
      <point x="239" y="413"/>
      <point x="203" y="377"/>
      <point x="160" y="377" type="curve" smooth="yes"/>
      <point x="117" y="377"/>
      <point x="81" y="413"/>
      <point x="81" y="456" type="curve" smooth="yes"/>
      <point x="81" y="499"/>
      <point x="117" y="536"/>
      <point x="160" y="536" type="curve" smooth="yes"/>
      <point x="203" y="536"/>
      <point x="239" y="499"/>
    </contour>
    <contour>
      <point x="170" y="68" type="curve" smooth="yes"/>
      <point x="170" y="25"/>
      <point x="134" y="-11"/>
      <point x="91" y="-11" type="curve" smooth="yes"/>
      <point x="48" y="-11"/>
      <point x="12" y="25"/>
      <point x="12" y="68" type="curve" smooth="yes"/>
      <point x="12" y="111"/>
      <point x="48" y="148"/>
      <point x="91" y="148" type="curve" smooth="yes"/>
      <point x="134" y="148"/>
      <point x="170" y="111"/>
    </contour>
  </outline>
</glyph>
<glyph name="semicolon" format="1">
  <advance width="254"/>
  <unicode hex="003B"/>
  <outline>
    <contour>
      <point x="239" y="456" type="curve" smooth="yes"/>
      <point x="239" y="413"/>
      <point x="203" y="377"/>
      <point x="160" y="377" type="curve" smooth="yes"/>
      <point x="117" y="377"/>
      <point x="81" y="413"/>
      <point x="81" y="456" type="curve" smooth="yes"/>
      <point x="81" y="499"/>
      <point x="117" y="536"/>
      <point x="160" y="536" type="curve" smooth="yes"/>
      <point x="203" y="536"/>
      <point x="239" y="499"/>
    </contour>
    <contour>
      <point x="173" y="139" type="line"/>
      <point x="51" y="-126" type="line"/>
      <point x="-20" y="-126" type="line"/>
      <point x="42" y="139" type="line"/>
    </contour>
  </outline>
</glyph>
<glyph name="question" format="1">
  <advance width="567"/>
  <unicode hex="003F"/>
  <outline>
    <contour>
      <point x="555" y="541" type="curve" smooth="yes"/>
      <point x="555" y="437"/>
      <point x="505" y="388"/>
      <point x="410" y="342" type="curve" smooth="yes"/>
      <point x="345" y="310"/>
      <point x="305" y="291"/>
      <point x="293" y="204" type="curve"/>
      <point x="190" y="204" type="line"/>
      <point x="205" y="334"/>
      <point x="251" y="371"/>
      <point x="346" y="413" type="curve" smooth="yes"/>
      <point x="408" y="440"/>
      <point x="448" y="469"/>
      <point x="448" y="522" type="curve" smooth="yes"/>
      <point x="448" y="575"/>
      <point x="402" y="607"/>
      <point x="330" y="607" type="curve" smooth="yes"/>
      <point x="265" y="607"/>
      <point x="202" y="582"/>
      <point x="142" y="535" type="curve"/>
      <point x="88" y="619" type="line"/>
      <point x="158" y="676"/>
      <point x="243" y="711"/>
      <point x="340" y="711" type="curve" smooth="yes"/>
      <point x="477" y="711"/>
      <point x="555" y="637"/>
    </contour>
    <contour>
      <point x="294" y="64" type="curve" smooth="yes"/>
      <point x="294" y="23"/>
      <point x="260" y="-11"/>
      <point x="219" y="-11" type="curve" smooth="yes"/>
      <point x="178" y="-11"/>
      <point x="144" y="23"/>
      <point x="144" y="64" type="curve" smooth="yes"/>
      <point x="144" y="105"/>
      <point x="178" y="140"/>
      <point x="219" y="140" type="curve" smooth="yes"/>
      <point x="260" y="140"/>
      <point x="294" y="105"/>
    </contour>
  </outline>
</glyph>
<glyph name="at" format="1">
  <advance width="836"/>
  <unicode hex="0040"/>
  <outline>
    <contour>
      <point x="783" y="360" type="curve" smooth="yes"/>
      <point x="783" y="209"/>
      <point x="719" y="154"/>
      <point x="631" y="154" type="curve" smooth="yes"/>
      <point x="579" y="154"/>
      <point x="542" y="180"/>
      <point x="524" y="216" type="curve"/>
      <point x="500" y="184"/>
      <point x="444" y="154"/>
      <point x="396" y="154" type="curve" smooth="yes"/>
      <point x="319" y="154"/>
      <point x="244" y="198"/>
      <point x="244" y="291" type="curve" smooth="yes"/>
      <point x="244" y="377"/>
      <point x="319" y="418"/>
      <point x="405" y="418" type="curve" smooth="yes"/>
      <point x="445" y="418"/>
      <point x="482" y="405"/>
      <point x="504" y="392" type="curve"/>
      <point x="504" y="443" type="line" smooth="yes"/>
      <point x="504" y="485"/>
      <point x="471" y="502"/>
      <point x="411" y="502" type="curve" smooth="yes"/>
      <point x="374" y="502"/>
      <point x="343" y="496"/>
      <point x="314" y="478" type="curve"/>
      <point x="286" y="527" type="line"/>
      <point x="323" y="549"/>
      <point x="369" y="561"/>
      <point x="415" y="561" type="curve" smooth="yes"/>
      <point x="509" y="561"/>
      <point x="571" y="522"/>
      <point x="571" y="441" type="curve" smooth="yes"/>
      <point x="571" y="273" type="line" smooth="yes"/>
      <point x="571" y="237"/>
      <point x="590" y="213"/>
      <point x="637" y="213" type="curve" smooth="yes"/>
      <point x="699" y="213"/>
      <point x="725" y="265"/>
      <point x="725" y="361" type="curve" smooth="yes"/>
      <point x="725" y="520"/>
      <point x="596" y="654"/>
      <point x="422" y="654" type="curve" smooth="yes"/>
      <point x="247" y="654"/>
      <point x="119" y="525"/>
      <point x="119" y="351" type="curve" smooth="yes"/>
      <point x="119" y="176"/>
      <point x="247" y="47"/>
      <point x="422" y="47" type="curve" smooth="yes"/>
      <point x="467" y="47"/>
      <point x="507" y="54"/>
      <point x="552" y="76" type="curve"/>
      <point x="576" y="23" type="line"/>
      <point x="519" y="-3"/>
      <point x="479" y="-11"/>
      <point x="422" y="-11" type="curve" smooth="yes"/>
      <point x="213" y="-11"/>
      <point x="61" y="141"/>
      <point x="61" y="350" type="curve" smooth="yes"/>
      <point x="61" y="559"/>
      <point x="213" y="711"/>
      <point x="422" y="711" type="curve" smooth="yes"/>
      <point x="635" y="711"/>
      <point x="783" y="550"/>
    </contour>
    <contour>
      <point x="504" y="270" type="curve"/>
      <point x="504" y="331" type="line"/>
      <point x="484" y="346"/>
      <point x="446" y="361"/>
      <point x="401" y="361" type="curve" smooth="yes"/>
      <point x="344" y="361"/>
      <point x="309" y="337"/>
      <point x="309" y="293" type="curve" smooth="yes"/>
      <point x="309" y="245"/>
      <point x="343" y="214"/>
      <point x="406" y="214" type="curve" smooth="yes"/>
      <point x="443" y="214"/>
      <point x="486" y="237"/>
    </contour>
  </outline>
</glyph>
<glyph name="A" format="1">
  <advance width="707"/>
  <unicode hex="0041"/>
  <outline>
    <contour>
      <point x="613" y="0" type="line"/>
      <point x="503" y="0" type="line"/>
      <point x="474" y="167" type="line"/>
      <point x="202" y="167" type="line"/>
      <point x="115" y="0" type="line"/>
      <point x="1" y="0" type="line"/>
      <point x="377" y="700" type="line"/>
      <point x="483" y="700" type="line"/>
    </contour>
    <contour>
      <point x="460" y="260" type="line"/>
      <point x="428" y="447" type="line" smooth="yes"/>
      <point x="420" y="491"/>
      <point x="412" y="543"/>
      <point x="410" y="571" type="curve"/>
      <point x="398" y="544"/>
      <point x="373" y="492"/>
      <point x="348" y="446" type="curve" smooth="yes"/>
      <point x="248" y="260" type="line"/>
    </contour>
  </outline>
</glyph>
<glyph name="B" format="1">
  <advance width="671"/>
  <unicode hex="0042"/>
  <outline>
    <contour>
      <point x="510" y="372" type="curve"/>
      <point x="561" y="350"/>
      <point x="601" y="304"/>
      <point x="601" y="230" type="curve" smooth="yes"/>
      <point x="601" y="82"/>
      <point x="491" y="0"/>
      <point x="333" y="0" type="curve" smooth="yes"/>
      <point x="45" y="0" type="line"/>
      <point x="169" y="700" type="line"/>
      <point x="413" y="700" type="line" smooth="yes"/>
      <point x="545" y="700"/>
      <point x="626" y="641"/>
      <point x="626" y="541" type="curve" smooth="yes"/>
      <point x="626" y="451"/>
      <point x="579" y="400"/>
    </contour>
    <contour>
      <point x="518" y="525" type="curve" smooth="yes"/>
      <point x="518" y="573"/>
      <point x="484" y="604"/>
      <point x="404" y="604" type="curve" smooth="yes"/>
      <point x="251" y="604" type="line"/>
      <point x="219" y="423" type="line"/>
      <point x="402" y="423" type="line" smooth="yes"/>
      <point x="478" y="423"/>
      <point x="518" y="465"/>
    </contour>
    <contour>
      <point x="493" y="227" type="curve" smooth="yes"/>
      <point x="493" y="291"/>
      <point x="453" y="328"/>
      <point x="370" y="328" type="curve" smooth="yes"/>
      <point x="202" y="328" type="line"/>
      <point x="161" y="96" type="line"/>
      <point x="349" y="96" type="line" smooth="yes"/>
      <point x="437" y="96"/>
      <point x="493" y="145"/>
    </contour>
  </outline>
</glyph>
<glyph name="C" format="1">
  <advance width="651"/>
  <unicode hex="0043"/>
  <outline>
    <contour>
      <point x="642" y="563" type="curve"/>
      <point x="543" y="516" type="line"/>
      <point x="514" y="574"/>
      <point x="472" y="608"/>
      <point x="402" y="608" type="curve" smooth="yes"/>
      <point x="277" y="608"/>
      <point x="173" y="475"/>
      <point x="173" y="292" type="curve" smooth="yes"/>
      <point x="173" y="165"/>
      <point x="233" y="92"/>
      <point x="326" y="92" type="curve" smooth="yes"/>
      <point x="393" y="92"/>
      <point x="445" y="127"/>
      <point x="492" y="184" type="curve"/>
      <point x="568" y="118" type="line"/>
      <point x="508" y="37"/>
      <point x="425" y="-11"/>
      <point x="320" y="-11" type="curve" smooth="yes"/>
      <point x="172" y="-11"/>
      <point x="65" y="87"/>
      <point x="65" y="277" type="curve" smooth="yes"/>
      <point x="65" y="538"/>
      <point x="224" y="711"/>
      <point x="414" y="711" type="curve" smooth="yes"/>
      <point x="529" y="711"/>
      <point x="606" y="654"/>
    </contour>
  </outline>
</glyph>
<glyph name="D" format="1">
  <advance width="675"/>
  <unicode hex="0044"/>
  <outline>
    <contour>
      <point x="640" y="370" type="curve" smooth="yes"/>
      <point x="619" y="97"/>
      <point x="417" y="0"/>
      <point x="245" y="0" type="curve" smooth="yes"/>
      <point x="45" y="0" type="line"/>
      <point x="169" y="700" type="line"/>
      <point x="308" y="700" type="line" smooth="yes"/>
      <point x="532" y="700"/>
      <point x="657" y="595"/>
    </contour>
    <contour>
      <point x="532" y="373" type="curve" smooth="yes"/>
      <point x="542" y="524"/>
      <point x="470" y="598"/>
      <point x="303" y="598" type="curve" smooth="yes"/>
      <point x="256" y="598" type="line"/>
      <point x="168" y="102" type="line"/>
      <point x="257" y="102" type="line" smooth="yes"/>
      <point x="396" y="102"/>
      <point x="520" y="190"/>
    </contour>
  </outline>
</glyph>
<glyph name="E" format="1">
  <advance width="611"/>
  <unicode hex="0045"/>
  <outline>
    <contour>
      <point x="507" y="0" type="line"/>
      <point x="45" y="0" type="line"/>
      <point x="168" y="700" type="line"/>
      <point x="615" y="700" type="line"/>
      <point x="597" y="598" type="line"/>
      <point x="255" y="598" type="line"/>
      <point x="225" y="425" type="line"/>
      <point x="422" y="425" type="line"/>
      <point x="404" y="323" type="line"/>
      <point x="207" y="323" type="line"/>
      <point x="168" y="102" type="line"/>
      <point x="525" y="102" type="line"/>
    </contour>
  </outline>
</glyph>
<glyph name="F" format="1">
  <advance width="578"/>
  <unicode hex="0046"/>
  <outline>
    <contour>
      <point x="598" y="597" type="line"/>
      <point x="256" y="597" type="line"/>
      <point x="224" y="414" type="line"/>
      <point x="421" y="414" type="line"/>
      <point x="403" y="311" type="line"/>
      <point x="206" y="311" type="line"/>
      <point x="151" y="0" type="line"/>
      <point x="46" y="0" type="line"/>
      <point x="169" y="700" type="line"/>
      <point x="616" y="700" type="line"/>
    </contour>
  </outline>
</glyph>
<glyph name="G" format="1">
  <advance width="674"/>
  <unicode hex="0047"/>
  <outline>
    <contour>
      <point x="644" y="552" type="curve"/>
      <point x="544" y="508" type="line"/>
      <point x="515" y="572"/>
      <point x="472" y="608"/>
      <point x="403" y="608" type="curve" smooth="yes"/>
      <point x="279" y="608"/>
      <point x="172" y="478"/>
      <point x="172" y="289" type="curve" smooth="yes"/>
      <point x="172" y="157"/>
      <point x="243" y="91"/>
      <point x="335" y="91" type="curve" smooth="yes"/>
      <point x="425" y="91"/>
      <point x="484" y="147"/>
      <point x="506" y="248" type="curve"/>
      <point x="506" y="249"/>
      <point x="507" y="254"/>
      <point x="507" y="254" type="curve"/>
      <point x="391" y="254" type="line"/>
      <point x="408" y="355" type="line"/>
      <point x="630" y="355" type="line"/>
      <point x="618" y="289" type="line" smooth="yes"/>
      <point x="580" y="81"/>
      <point x="476" y="-12"/>
      <point x="324" y="-12" type="curve" smooth="yes"/>
      <point x="171" y="-12"/>
      <point x="65" y="94"/>
      <point x="65" y="285" type="curve" smooth="yes"/>
      <point x="65" y="541"/>
      <point x="227" y="711"/>
      <point x="414" y="711" type="curve" smooth="yes"/>
      <point x="534" y="711"/>
      <point x="608" y="652"/>
    </contour>
  </outline>
</glyph>
<glyph name="H" format="1">
  <advance width="710"/>
  <unicode hex="0048"/>
  <outline>
    <contour>
      <point x="573" y="0" type="line"/>
      <point x="468" y="0" type="line"/>
      <point x="523" y="312" type="line"/>
      <point x="205" y="312" type="line"/>
      <point x="150" y="0" type="line"/>
      <point x="45" y="0" type="line"/>
      <point x="168" y="700" type="line"/>
      <point x="273" y="700" type="line"/>
      <point x="223" y="417" type="line"/>
      <point x="541" y="417" type="line"/>
      <point x="591" y="700" type="line"/>
      <point x="696" y="700" type="line"/>
    </contour>
  </outline>
</glyph>
<glyph name="J" format="1">
  <advance width="605"/>
  <unicode hex="004A"/>
  <outline>
    <contour>
      <point x="591" y="700" type="line"/>
      <point x="516" y="276" type="line" smooth="yes"/>
      <point x="481" y="76"/>
      <point x="400" y="-11"/>
      <point x="243" y="-11" type="curve" smooth="yes"/>
      <point x="97" y="-11"/>
      <point x="29" y="77"/>
      <point x="12" y="185" type="curve"/>
      <point x="113" y="211" type="line"/>
      <point x="129" y="139"/>
      <point x="168" y="92"/>
      <point x="247" y="92" type="curve" smooth="yes"/>
      <point x="339" y="92"/>
      <point x="388" y="146"/>
      <point x="412" y="281" type="curve" smooth="yes"/>
      <point x="486" y="700" type="line"/>
    </contour>
  </outline>
</glyph>
<glyph name="K" format="1">
  <advance width="681"/>
  <unicode hex="004B"/>
  <outline>
    <contour>
      <point x="671" y="700" type="line"/>
      <point x="425" y="446" type="line"/>
      <point x="593" y="0" type="line"/>
      <point x="482" y="0" type="line"/>
      <point x="345" y="362" type="line"/>
      <point x="181" y="196" type="line"/>
      <point x="147" y="0" type="line"/>
      <point x="45" y="0" type="line"/>
      <point x="168" y="700" type="line"/>
      <point x="270" y="700" type="line"/>
      <point x="227" y="451" type="line" smooth="yes"/>
      <point x="225" y="438"/>
      <point x="206" y="344"/>
      <point x="204" y="335" type="curve"/>
      <point x="225" y="361"/>
      <point x="280" y="421"/>
      <point x="309" y="451" type="curve" smooth="yes"/>
      <point x="547" y="700" type="line"/>
    </contour>
  </outline>
</glyph>
<glyph name="L" format="1">
  <advance width="591"/>
  <unicode hex="004C"/>
  <outline>
    <contour>
      <point x="495" y="0" type="line"/>
      <point x="45" y="0" type="line"/>
      <point x="168" y="700" type="line"/>
      <point x="273" y="700" type="line"/>
      <point x="168" y="103" type="line"/>
      <point x="513" y="103" type="line"/>
    </contour>
  </outline>
</glyph>
<glyph name="M" format="1">
  <advance width="804"/>
  <unicode hex="004D"/>
  <outline>
    <contour>
      <point x="790" y="700" type="line"/>
      <point x="667" y="0" type="line"/>
      <point x="564" y="0" type="line"/>
      <point x="632" y="365" type="line" smooth="yes"/>
      <point x="636" y="384"/>
      <point x="650" y="466"/>
      <point x="652" y="480" type="curve"/>
      <point x="639" y="453"/>
      <point x="611" y="402"/>
      <point x="588" y="364" type="curve" smooth="yes"/>
      <point x="353" y="-17" type="line"/>
      <point x="257" y="364" type="line" smooth="yes"/>
      <point x="248" y="401"/>
      <point x="237" y="453"/>
      <point x="233" y="480" type="curve"/>
      <point x="231" y="466"/>
      <point x="218" y="384"/>
      <point x="215" y="365" type="curve" smooth="yes"/>
      <point x="148" y="0" type="line"/>
      <point x="45" y="0" type="line"/>
      <point x="168" y="700" type="line"/>
      <point x="276" y="700" type="line"/>
      <point x="363" y="332" type="line" smooth="yes"/>
      <point x="373" y="291"/>
      <point x="386" y="233"/>
      <point x="390" y="206" type="curve"/>
      <point x="403" y="234"/>
      <point x="437" y="292"/>
      <point x="461" y="332" type="curve" smooth="yes"/>
      <point x="680" y="700" type="line"/>
    </contour>
  </outline>
</glyph>
<glyph name="N" format="1">
  <advance width="710"/>
  <unicode hex="004E"/>
  <outline>
    <contour>
      <point x="697" y="700" type="line"/>
      <point x="573" y="0" type="line"/>
      <point x="477" y="0" type="line"/>
      <point x="273" y="448" type="line" smooth="yes"/>
      <point x="261" y="475"/>
      <point x="245" y="511"/>
      <point x="238" y="531" type="curve"/>
      <point x="236" y="518"/>
      <point x="226" y="451"/>
      <point x="223" y="431" type="curve" smooth="yes"/>
      <point x="148" y="0" type="line"/>
      <point x="45" y="0" type="line"/>
      <point x="169" y="700" type="line"/>
      <point x="270" y="700" type="line"/>
      <point x="470" y="253" type="line" smooth="yes"/>
      <point x="482" y="227"/>
      <point x="497" y="189"/>
      <point x="504" y="171" type="curve"/>
      <point x="506" y="184"/>
      <point x="516" y="251"/>
      <point x="519" y="270" type="curve" smooth="yes"/>
      <point x="594" y="700" type="line"/>
    </contour>
  </outline>
</glyph>
<glyph name="O" format="1">
  <advance width="707"/>
  <unicode hex="004F"/>
  <outline>
    <contour>
      <point x="666" y="330" type="curve" smooth="yes"/>
      <point x="629" y="124"/>
      <point x="495" y="-11"/>
      <point x="328" y="-11" type="curve" smooth="yes"/>
      <point x="137" y="-11"/>
      <point x="32" y="144"/>
      <point x="73" y="370" type="curve" smooth="yes"/>
      <point x="111" y="579"/>
      <point x="246" y="711"/>
      <point x="416" y="711" type="curve" smooth="yes"/>
      <point x="604" y="711"/>
      <point x="706" y="553"/>
    </contour>
    <contour>
      <point x="559" y="336" type="curve" smooth="yes"/>
      <point x="588" y="499"/>
      <point x="520" y="610"/>
      <point x="400" y="610" type="curve" smooth="yes"/>
      <point x="295" y="610"/>
      <point x="207" y="515"/>
      <point x="180" y="364" type="curve" smooth="yes"/>
      <point x="151" y="203"/>
      <point x="218" y="90"/>
      <point x="335" y="90" type="curve" smooth="yes"/>
      <point x="446" y="90"/>
      <point x="532" y="184"/>
    </contour>
  </outline>
</glyph>
<glyph name="P" format="1">
  <advance width="649"/>
  <unicode hex="0050"/>
  <outline>
    <contour>
      <point x="637" y="490" type="curve" smooth="yes"/>
      <point x="623" y="325"/>
      <point x="502" y="261"/>
      <point x="361" y="261" type="curve" smooth="yes"/>
      <point x="194" y="261" type="line"/>
      <point x="148" y="0" type="line"/>
      <point x="45" y="0" type="line"/>
      <point x="169" y="700" type="line"/>
      <point x="407" y="700" type="line" smooth="yes"/>
      <point x="547" y="700"/>
      <point x="648" y="628"/>
    </contour>
    <contour>
      <point x="529" y="488" type="curve" smooth="yes"/>
      <point x="533" y="562"/>
      <point x="485" y="601"/>
      <point x="398" y="601" type="curve" smooth="yes"/>
      <point x="254" y="601" type="line"/>
      <point x="212" y="360" type="line"/>
      <point x="370" y="360" type="line" smooth="yes"/>
      <point x="464" y="360"/>
      <point x="524" y="407"/>
    </contour>
  </outline>
</glyph>
<glyph name="Q" format="1">
  <advance width="705"/>
  <unicode hex="0051"/>
  <outline>
    <contour>
      <point x="524" y="63" type="curve"/>
      <point x="566" y="-14" type="line"/>
      <point x="478" y="-65" type="line"/>
      <point x="437" y="10" type="line"/>
      <point x="403" y="-3"/>
      <point x="366" y="-10"/>
      <point x="328" y="-10" type="curve" smooth="yes"/>
      <point x="137" y="-10"/>
      <point x="32" y="144"/>
      <point x="73" y="370" type="curve" smooth="yes"/>
      <point x="111" y="579"/>
      <point x="246" y="711"/>
      <point x="416" y="711" type="curve" smooth="yes"/>
      <point x="604" y="711"/>
      <point x="706" y="553"/>
      <point x="666" y="330" type="curve" smooth="yes"/>
      <point x="645" y="215"/>
      <point x="594" y="122"/>
    </contour>
    <contour>
      <point x="390" y="98" type="curve"/>
      <point x="344" y="182" type="line"/>
      <point x="432" y="232" type="line"/>
      <point x="475" y="152" type="line"/>
      <point x="516" y="195"/>
      <point x="545" y="258"/>
      <point x="559" y="336" type="curve" smooth="yes"/>
      <point x="588" y="499"/>
      <point x="520" y="610"/>
      <point x="400" y="610" type="curve" smooth="yes"/>
      <point x="295" y="610"/>
      <point x="207" y="515"/>
      <point x="180" y="364" type="curve" smooth="yes"/>
      <point x="151" y="203"/>
      <point x="219" y="90"/>
      <point x="336" y="90" type="curve" smooth="yes"/>
      <point x="355" y="90"/>
      <point x="373" y="93"/>
    </contour>
  </outline>
</glyph>
<glyph name="R" format="1">
  <advance width="690"/>
  <unicode hex="0052"/>
  <outline>
    <contour>
      <point x="475" y="287" type="curve"/>
      <point x="572" y="0" type="line"/>
      <point x="460" y="0" type="line"/>
      <point x="366" y="277" type="line"/>
      <point x="197" y="277" type="line"/>
      <point x="148" y="0" type="line"/>
      <point x="45" y="0" type="line"/>
      <point x="169" y="700" type="line"/>
      <point x="437" y="700" type="line" smooth="yes"/>
      <point x="579" y="700"/>
      <point x="664" y="639"/>
      <point x="664" y="513" type="curve" smooth="yes"/>
      <point x="664" y="397"/>
      <point x="601" y="316"/>
    </contour>
    <contour>
      <point x="555" y="506" type="curve" smooth="yes"/>
      <point x="555" y="565"/>
      <point x="516" y="601"/>
      <point x="429" y="601" type="curve" smooth="yes"/>
      <point x="254" y="601" type="line"/>
      <point x="215" y="376" type="line"/>
      <point x="410" y="376" type="line" smooth="yes"/>
      <point x="500" y="376"/>
      <point x="555" y="418"/>
    </contour>
  </outline>
</glyph>
<glyph name="S" format="1">
  <advance width="626"/>
  <unicode hex="0053"/>
  <outline>
    <contour>
      <point x="596" y="603" type="curve"/>
      <point x="513" y="531" type="line"/>
      <point x="472" y="577"/>
      <point x="423" y="611"/>
      <point x="342" y="611" type="curve" smooth="yes"/>
      <point x="264" y="611"/>
      <point x="226" y="570"/>
      <point x="223" y="524" type="curve" smooth="yes"/>
      <point x="220" y="477"/>
      <point x="244" y="451"/>
      <point x="361" y="406" type="curve" smooth="yes"/>
      <point x="477" y="361"/>
      <point x="558" y="306"/>
      <point x="547" y="184" type="curve" smooth="yes"/>
      <point x="536" y="62"/>
      <point x="433" y="-11"/>
      <point x="290" y="-11" type="curve" smooth="yes"/>
      <point x="159" y="-11"/>
      <point x="71" y="50"/>
      <point x="26" y="117" type="curve"/>
      <point x="110" y="185" type="line"/>
      <point x="160" y="121"/>
      <point x="224" y="90"/>
      <point x="304" y="90" type="curve" smooth="yes"/>
      <point x="377" y="90"/>
      <point x="437" y="126"/>
      <point x="440" y="190" type="curve" smooth="yes"/>
      <point x="442" y="243"/>
      <point x="408" y="275"/>
      <point x="293" y="319" type="curve" smooth="yes"/>
      <point x="171" y="366"/>
      <point x="108" y="415"/>
      <point x="118" y="529" type="curve" smooth="yes"/>
      <point x="128" y="644"/>
      <point x="227" y="711"/>
      <point x="359" y="711" type="curve" smooth="yes"/>
      <point x="471" y="711"/>
      <point x="544" y="666"/>
    </contour>
  </outline>
</glyph>
<glyph name="T" format="1">
  <advance width="603"/>
  <unicode hex="0054"/>
  <outline>
    <contour>
      <point x="615" y="597" type="line"/>
      <point x="413" y="597" type="line"/>
      <point x="308" y="0" type="line"/>
      <point x="203" y="0" type="line"/>
      <point x="308" y="597" type="line"/>
      <point x="106" y="597" type="line"/>
      <point x="124" y="700" type="line"/>
      <point x="633" y="700" type="line"/>
    </contour>
  </outline>
</glyph>
<glyph name="U" format="1">
  <advance width="700"/>
  <unicode hex="0055"/>
  <outline>
    <contour>
      <point x="692" y="700" type="line"/>
      <point x="618" y="283" type="line" smooth="yes"/>
      <point x="585" y="96"/>
      <point x="502" y="-11"/>
      <point x="327" y="-11" type="curve" smooth="yes"/>
      <point x="175" y="-11"/>
      <point x="84" y="72"/>
      <point x="85" y="222" type="curve" smooth="yes"/>
      <point x="85" y="245"/>
      <point x="89" y="275"/>
      <point x="94" y="304" type="curve" smooth="yes"/>
      <point x="164" y="700" type="line"/>
      <point x="269" y="700" type="line"/>
      <point x="199" y="304" type="line" smooth="yes"/>
      <point x="195" y="280"/>
      <point x="192" y="256"/>
      <point x="192" y="236" type="curve" smooth="yes"/>
      <point x="192" y="148"/>
      <point x="235" y="91"/>
      <point x="336" y="91" type="curve" smooth="yes"/>
      <point x="438" y="91"/>
      <point x="492" y="158"/>
      <point x="515" y="291" type="curve" smooth="yes"/>
      <point x="587" y="700" type="line"/>
    </contour>
  </outline>
</glyph>
<glyph name="V" format="1">
  <advance width="688"/>
  <unicode hex="0056"/>
  <outline>
    <contour>
      <point x="712" y="700" type="line"/>
      <point x="352" y="0" type="line"/>
      <point x="240" y="0" type="line"/>
      <point x="124" y="700" type="line"/>
      <point x="233" y="700" type="line"/>
      <point x="299" y="257" type="line" smooth="yes"/>
      <point x="305" y="217"/>
      <point x="313" y="156"/>
      <point x="316" y="131" type="curve"/>
      <point x="325" y="154"/>
      <point x="356" y="218"/>
      <point x="377" y="259" type="curve" smooth="yes"/>
      <point x="600" y="700" type="line"/>
    </contour>
  </outline>
</glyph>
<glyph name="W" format="1">
  <advance width="859"/>
  <unicode hex="0057"/>
  <outline>
    <contour>
      <point x="887" y="700" type="line"/>
      <point x="624" y="0" type="line"/>
      <point x="512" y="0" type="line"/>
      <point x="486" y="404" type="line" smooth="yes"/>
      <point x="483" y="448"/>
      <point x="481" y="508"/>
      <point x="482" y="543" type="curve"/>
      <point x="469" y="508"/>
      <point x="446" y="448"/>
      <point x="427" y="404" type="curve" smooth="yes"/>
      <point x="256" y="0" type="line"/>
      <point x="149" y="0" type="line"/>
      <point x="130" y="700" type="line"/>
      <point x="238" y="700" type="line"/>
      <point x="239" y="305" type="line" smooth="yes"/>
      <point x="239" y="265"/>
      <point x="238" y="201"/>
      <point x="237" y="169" type="curve"/>
      <point x="248" y="201"/>
      <point x="273" y="264"/>
      <point x="290" y="304" type="curve" smooth="yes"/>
      <point x="458" y="700" type="line"/>
      <point x="558" y="700" type="line"/>
      <point x="586" y="304" type="line" smooth="yes"/>
      <point x="589" y="263"/>
      <point x="590" y="201"/>
      <point x="590" y="169" type="curve"/>
      <point x="600" y="201"/>
      <point x="621" y="265"/>
      <point x="636" y="305" type="curve" smooth="yes"/>
      <point x="780" y="700" type="line"/>
    </contour>
  </outline>
</glyph>
<glyph name="X" format="1">
  <advance width="655"/>
  <unicode hex="0058"/>
  <outline>
    <contour>
      <point x="335" y="270" type="curve"/>
      <point x="335" y="270"/>
      <point x="303" y="226"/>
      <point x="282" y="199" type="curve" smooth="yes"/>
      <point x="222" y="122"/>
      <point x="128" y="0"/>
      <point x="128" y="0" type="curve"/>
      <point x="9" y="0" type="line"/>
      <point x="292" y="366" type="line"/>
      <point x="148" y="700" type="line"/>
      <point x="261" y="700" type="line"/>
      <point x="261" y="700"/>
      <point x="305" y="600"/>
      <point x="332" y="536" type="curve" smooth="yes"/>
      <point x="344" y="507"/>
      <point x="364" y="458"/>
      <point x="364" y="458" type="curve"/>
      <point x="364" y="458"/>
      <point x="400" y="507"/>
      <point x="423" y="536" type="curve" smooth="yes"/>
      <point x="473" y="600"/>
      <point x="549" y="700"/>
      <point x="549" y="700" type="curve"/>
      <point x="668" y="700" type="line"/>
      <point x="407" y="361" type="line"/>
      <point x="562" y="0" type="line"/>
      <point x="450" y="0" type="line"/>
      <point x="450" y="0"/>
      <point x="398" y="122"/>
      <point x="364" y="200" type="curve" smooth="yes"/>
      <point x="353" y="226"/>
      <point x="335" y="270"/>
    </contour>
  </outline>
</glyph>
<glyph name="Y" format="1">
  <advance width="685"/>
  <unicode hex="0059"/>
  <outline>
    <contour>
      <point x="722" y="700" type="line"/>
      <point x="397" y="276" type="line"/>
      <point x="349" y="0" type="line"/>
      <point x="244" y="0" type="line"/>
      <point x="293" y="277" type="line"/>
      <point x="119" y="700" type="line"/>
      <point x="236" y="700" type="line"/>
      <point x="308" y="517" type="line" smooth="yes"/>
      <point x="326" y="470"/>
      <point x="350" y="407"/>
      <point x="361" y="373" type="curve"/>
      <point x="384" y="406"/>
      <point x="426" y="469"/>
      <point x="462" y="517" type="curve" smooth="yes"/>
      <point x="600" y="700" type="line"/>
    </contour>
  </outline>
</glyph>
<glyph name="Z" format="1">
  <advance width="660"/>
  <unicode hex="005A"/>
  <outline>
    <contour>
      <point x="655" y="700" type="line"/>
      <point x="639" y="604" type="line"/>
      <point x="259" y="199" type="line" smooth="yes"/>
      <point x="233" y="171"/>
      <point x="186" y="122"/>
      <point x="158" y="96" type="curve"/>
      <point x="171" y="97"/>
      <point x="247" y="97"/>
      <point x="265" y="97" type="curve" smooth="yes"/>
      <point x="560" y="97" type="line"/>
      <point x="543" y="0" type="line"/>
      <point x="15" y="0" type="line"/>
      <point x="31" y="95" type="line"/>
      <point x="413" y="501" type="line" smooth="yes"/>
      <point x="444" y="534"/>
      <point x="486" y="578"/>
      <point x="513" y="604" type="curve"/>
      <point x="501" y="603"/>
      <point x="427" y="603"/>
      <point x="409" y="603" type="curve" smooth="yes"/>
      <point x="142" y="603" type="line"/>
      <point x="159" y="700" type="line"/>
    </contour>
  </outline>
</glyph>
<glyph name="bracketleft" format="1">
  <advance width="376"/>
  <unicode hex="005B"/>
  <outline>
    <contour>
      <point x="248" y="-110" type="line"/>
      <point x="30" y="-110" type="line"/>
      <point x="172" y="700" type="line"/>
      <point x="390" y="700" type="line"/>
      <point x="375" y="615" type="line"/>
      <point x="256" y="615" type="line"/>
      <point x="144" y="-25" type="line"/>
      <point x="263" y="-25" type="line"/>
    </contour>
  </outline>
</glyph>
<glyph name="backslash" format="1">
  <advance width="446"/>
  <unicode hex="005C"/>
  <outline>
    <contour>
      <point x="367" y="-90" type="line"/>
      <point x="264" y="-90" type="line"/>
      <point x="109" y="790" type="line"/>
      <point x="212" y="790" type="line"/>
    </contour>
  </outline>
</glyph>
<glyph name="bracketright" format="1">
  <advance width="376"/>
  <unicode hex="005D"/>
  <outline>
    <contour>
      <point x="216" y="-110" type="line"/>
      <point x="-2" y="-110" type="line"/>
      <point x="13" y="-25" type="line"/>
      <point x="132" y="-25" type="line"/>
      <point x="244" y="615" type="line"/>
      <point x="125" y="615" type="line"/>
      <point x="140" y="700" type="line"/>
      <point x="358" y="700" type="line"/>
    </contour>
  </outline>
</glyph>
<glyph name="asciicircum" format="1">
  <advance width="578"/>
  <unicode hex="005E"/>
  <outline>
    <contour>
      <point x="552" y="382" type="line"/>
      <point x="442" y="382" type="line"/>
      <point x="351" y="591" type="line"/>
      <point x="186" y="382" type="line"/>
      <point x="68" y="382" type="line"/>
      <point x="326" y="700" type="line"/>
      <point x="406" y="700" type="line"/>
    </contour>
  </outline>
</glyph>
<glyph name="underscore" format="1">
  <advance width="500"/>
  <unicode hex="005F"/>
  <outline>
    <contour>
      <point x="422" y="-177" type="line"/>
      <point x="-78" y="-177" type="line"/>
      <point x="-61" y="-82" type="line"/>
      <point x="439" y="-82" type="line"/>
    </contour>
  </outline>
</glyph>
<glyph name="grave" format="1">
  <advance width="500"/>
  <unicode hex="0060"/>
  <outline>
    <contour>
      <point x="405" y="595" type="line"/>
      <point x="323" y="595" type="line"/>
      <point x="186" y="755" type="line"/>
      <point x="326" y="755" type="line"/>
    </contour>
  </outline>
</glyph>
<glyph name="a" format="1">
  <advance width="542"/>
  <unicode hex="0061"/>
  <outline>
    <contour>
      <point x="494" y="392" type="curve" smooth="yes"/>
      <point x="494" y="378"/>
      <point x="493" y="364"/>
      <point x="490" y="349" type="curve" smooth="yes"/>
      <point x="429" y="0" type="line"/>
      <point x="328" y="0" type="line"/>
      <point x="336" y="47" type="line"/>
      <point x="303" y="15"/>
      <point x="257" y="-11"/>
      <point x="197" y="-11" type="curve" smooth="yes"/>
      <point x="101" y="-11"/>
      <point x="23" y="46"/>
      <point x="32" y="159" type="curve" smooth="yes"/>
      <point x="42" y="283"/>
      <point x="143" y="338"/>
      <point x="252" y="338" type="curve" smooth="yes"/>
      <point x="303" y="338"/>
      <point x="355" y="326"/>
      <point x="382" y="312" type="curve"/>
      <point x="389" y="350" type="line" smooth="yes"/>
      <point x="391" y="360"/>
      <point x="392" y="372"/>
      <point x="392" y="380" type="curve" smooth="yes"/>
      <point x="392" y="425"/>
      <point x="362" y="444"/>
      <point x="296" y="444" type="curve" smooth="yes"/>
      <point x="247" y="444"/>
      <point x="202" y="431"/>
      <point x="162" y="411" type="curve"/>
      <point x="133" y="493" type="line"/>
      <point x="178" y="516"/>
      <point x="244" y="536"/>
      <point x="308" y="536" type="curve" smooth="yes"/>
      <point x="421" y="536"/>
      <point x="494" y="492"/>
    </contour>
    <contour>
      <point x="368" y="227" type="line"/>
      <point x="340" y="242"/>
      <point x="300" y="253"/>
      <point x="247" y="253" type="curve" smooth="yes"/>
      <point x="181" y="253"/>
      <point x="135" y="220"/>
      <point x="132" y="160" type="curve" smooth="yes"/>
      <point x="129" y="113"/>
      <point x="158" y="78"/>
      <point x="223" y="78" type="curve" smooth="yes"/>
      <point x="276" y="78"/>
      <point x="324" y="109"/>
      <point x="353" y="142" type="curve"/>
    </contour>
  </outline>
</glyph>
<glyph name="b" format="1">
  <advance width="566"/>
  <unicode hex="0062"/>
  <outline>
    <contour>
      <point x="281" y="-11" type="curve" smooth="yes"/>
      <point x="217" y="-11"/>
      <point x="170" y="15"/>
      <point x="140" y="50" type="curve"/>
      <point x="132" y="0" type="line"/>
      <point x="30" y="0" type="line"/>
      <point x="149" y="676" type="line"/>
      <point x="260" y="729" type="line"/>
      <point x="216" y="481" type="line"/>
      <point x="251" y="515"/>
      <point x="294" y="536"/>
      <point x="346" y="536" type="curve" smooth="yes"/>
      <point x="445" y="536"/>
      <point x="520" y="461"/>
      <point x="520" y="317" type="curve" smooth="yes"/>
      <point x="520" y="115"/>
      <point x="409" y="-11"/>
    </contour>
    <contour>
      <point x="415" y="311" type="curve" smooth="yes"/>
      <point x="415" y="395"/>
      <point x="377" y="441"/>
      <point x="314" y="441" type="curve" smooth="yes"/>
      <point x="261" y="441"/>
      <point x="215" y="400"/>
      <point x="197" y="382" type="curve"/>
      <point x="157" y="154" type="line"/>
      <point x="175" y="125"/>
      <point x="224" y="84"/>
      <point x="277" y="84" type="curve" smooth="yes"/>
      <point x="366" y="84"/>
      <point x="415" y="196"/>
    </contour>
  </outline>
</glyph>
<glyph name="c" format="1">
  <advance width="518"/>
  <unicode hex="0063"/>
  <outline>
    <contour>
      <point x="494" y="434" type="curve"/>
      <point x="418" y="365" type="line"/>
      <point x="393" y="404"/>
      <point x="358" y="438"/>
      <point x="301" y="438" type="curve" smooth="yes"/>
      <point x="218" y="438"/>
      <point x="158" y="359"/>
      <point x="150" y="243" type="curve" smooth="yes"/>
      <point x="144" y="148"/>
      <point x="185" y="87"/>
      <point x="267" y="87" type="curve" smooth="yes"/>
      <point x="309" y="87"/>
      <point x="345" y="107"/>
      <point x="384" y="143" type="curve"/>
      <point x="439" y="73" type="line"/>
      <point x="383" y="18"/>
      <point x="322" y="-11"/>
      <point x="254" y="-11" type="curve" smooth="yes"/>
      <point x="119" y="-11"/>
      <point x="34" y="94"/>
      <point x="46" y="248" type="curve" smooth="yes"/>
      <point x="60" y="431"/>
      <point x="179" y="536"/>
      <point x="309" y="536" type="curve" smooth="yes"/>
      <point x="409" y="536"/>
      <point x="460" y="487"/>
    </contour>
  </outline>
</glyph>
<glyph name="e" format="1">
  <advance width="545"/>
  <unicode hex="0065"/>
  <outline>
    <contour>
      <point x="491" y="324" type="curve" smooth="yes"/>
      <point x="491" y="290"/>
      <point x="486" y="256"/>
      <point x="478" y="227" type="curve"/>
      <point x="145" y="227" type="line"/>
      <point x="137" y="136"/>
      <point x="189" y="82"/>
      <point x="266" y="82" type="curve" smooth="yes"/>
      <point x="309" y="82"/>
      <point x="345" y="99"/>
      <point x="384" y="123" type="curve"/>
      <point x="429" y="51" type="line"/>
      <point x="375" y="10"/>
      <point x="319" y="-11"/>
      <point x="252" y="-11" type="curve" smooth="yes"/>
      <point x="116" y="-11"/>
      <point x="34" y="90"/>
      <point x="46" y="245" type="curve" smooth="yes"/>
      <point x="60" y="425"/>
      <point x="168" y="536"/>
      <point x="301" y="536" type="curve" smooth="yes"/>
      <point x="427" y="536"/>
      <point x="491" y="446"/>
    </contour>
    <contour>
      <point x="393" y="310" type="line"/>
      <point x="400" y="386"/>
      <point x="368" y="443"/>
      <point x="290" y="443" type="curve" smooth="yes"/>
      <point x="220" y="443"/>
      <point x="177" y="387"/>
      <point x="158" y="310" type="curve"/>
    </contour>
  </outline>
</glyph>
<glyph name="g" format="1">
  <advance width="566"/>
  <unicode hex="0067"/>
  <outline>
    <contour>
      <point x="221" y="-11" type="curve" smooth="yes"/>
      <point x="122" y="-11"/>
      <point x="47" y="64"/>
      <point x="47" y="208" type="curve" smooth="yes"/>
      <point x="47" y="410"/>
      <point x="158" y="536"/>
      <point x="286" y="536" type="curve" smooth="yes"/>
      <point x="350" y="536"/>
      <point x="397" y="510"/>
      <point x="427" y="475" type="curve"/>
      <point x="435" y="525" type="line"/>
      <point x="538" y="525" type="line"/>
      <point x="458" y="66" type="line" smooth="yes"/>
      <point x="429" y="-103"/>
      <point x="366" y="-185"/>
      <point x="164" y="-193" type="curve"/>
      <point x="142" y="-111" type="line"/>
      <point x="292" y="-107"/>
      <point x="331" y="-58"/>
      <point x="349" y="34" type="curve" smooth="yes"/>
      <point x="351" y="44" type="line"/>
      <point x="316" y="10"/>
      <point x="273" y="-11"/>
    </contour>
    <contour>
      <point x="152" y="214" type="curve" smooth="yes"/>
      <point x="152" y="130"/>
      <point x="190" y="84"/>
      <point x="253" y="84" type="curve" smooth="yes"/>
      <point x="306" y="84"/>
      <point x="352" y="125"/>
      <point x="370" y="143" type="curve"/>
      <point x="410" y="371" type="line"/>
      <point x="392" y="400"/>
      <point x="343" y="441"/>
      <point x="290" y="441" type="curve" smooth="yes"/>
      <point x="201" y="441"/>
      <point x="152" y="329"/>
    </contour>
  </outline>
</glyph>
<glyph name="h" format="1">
  <advance width="566"/>
  <unicode hex="0068"/>
  <outline>
    <contour>
      <point x="508" y="373" type="curve" smooth="yes"/>
      <point x="508" y="353"/>
      <point x="505" y="329"/>
      <point x="501" y="306" type="curve" smooth="yes"/>
      <point x="447" y="0" type="line"/>
      <point x="344" y="0" type="line"/>
      <point x="395" y="293" type="line" smooth="yes"/>
      <point x="398" y="311"/>
      <point x="400" y="329"/>
      <point x="400" y="344" type="curve" smooth="yes"/>
      <point x="400" y="410"/>
      <point x="376" y="441"/>
      <point x="315" y="441" type="curve" smooth="yes"/>
      <point x="251" y="441"/>
      <point x="200" y="391"/>
      <point x="183" y="292" type="curve" smooth="yes"/>
      <point x="132" y="0" type="line"/>
      <point x="29" y="0" type="line"/>
      <point x="148" y="675" type="line"/>
      <point x="261" y="729" type="line"/>
      <point x="217" y="480" type="line"/>
      <point x="246" y="510"/>
      <point x="287" y="536"/>
      <point x="347" y="536" type="curve" smooth="yes"/>
      <point x="450" y="536"/>
      <point x="508" y="480"/>
    </contour>
  </outline>
</glyph>
<glyph name="i" format="1">
  <advance width="265"/>
  <unicode hex="0069"/>
  <outline>
    <contour>
      <point x="264" y="659" type="curve" smooth="yes"/>
      <point x="264" y="623"/>
      <point x="235" y="593"/>
      <point x="200" y="593" type="curve" smooth="yes"/>
      <point x="164" y="593"/>
      <point x="135" y="623"/>
      <point x="135" y="659" type="curve" smooth="yes"/>
      <point x="135" y="696"/>
      <point x="164" y="726"/>
      <point x="200" y="726" type="curve" smooth="yes"/>
      <point x="235" y="726"/>
      <point x="264" y="696"/>
    </contour>
    <contour>
      <point x="230" y="525" type="line"/>
      <point x="138" y="0" type="line"/>
      <point x="35" y="0" type="line"/>
      <point x="127" y="525" type="line"/>
    </contour>
  </outline>
</glyph>
<glyph name="j" format="1">
  <advance width="265"/>
  <unicode hex="006A"/>
  <outline>
    <contour>
      <point x="265" y="659" type="curve" smooth="yes"/>
      <point x="265" y="623"/>
      <point x="235" y="593"/>
      <point x="201" y="593" type="curve" smooth="yes"/>
      <point x="165" y="593"/>
      <point x="135" y="623"/>
      <point x="135" y="659" type="curve" smooth="yes"/>
      <point x="135" y="696"/>
      <point x="165" y="726"/>
      <point x="201" y="726" type="curve" smooth="yes"/>
      <point x="235" y="726"/>
      <point x="265" y="696"/>
    </contour>
    <contour>
      <point x="230" y="525" type="line"/>
      <point x="141" y="19" type="line" smooth="yes"/>
      <point x="117" y="-115"/>
      <point x="73" y="-173"/>
      <point x="-77" y="-193" type="curve"/>
      <point x="-100" y="-104" type="line"/>
      <point x="-6" y="-86"/>
      <point x="23" y="-67"/>
      <point x="39" y="23" type="curve" smooth="yes"/>
      <point x="127" y="525" type="line"/>
    </contour>
  </outline>
</glyph>
<glyph name="k" format="1">
  <advance width="525"/>
  <unicode hex="006B"/>
  <outline>
    <contour>
      <point x="264" y="264" type="line"/>
      <point x="161" y="155" type="line"/>
      <point x="133" y="0" type="line"/>
      <point x="30" y="0" type="line"/>
      <point x="149" y="675" type="line"/>
      <point x="262" y="729" type="line"/>
      <point x="202" y="391" type="line" smooth="yes"/>
      <point x="195" y="354"/>
      <point x="186" y="310"/>
      <point x="184" y="298" type="curve"/>
      <point x="192" y="308"/>
      <point x="226" y="346"/>
      <point x="226" y="346" type="curve"/>
      <point x="391" y="525" type="line"/>
      <point x="510" y="525" type="line"/>
      <point x="345" y="350" type="line"/>
      <point x="438" y="0" type="line"/>
      <point x="334" y="0" type="line"/>
    </contour>
  </outline>
</glyph>
<glyph name="l" format="1">
  <advance width="265"/>
  <unicode hex="006C"/>
  <outline>
    <contour>
      <point x="138" y="0" type="line"/>
      <point x="35" y="0" type="line"/>
      <point x="154" y="675" type="line"/>
      <point x="267" y="729" type="line"/>
    </contour>
  </outline>
</glyph>
<glyph name="m" format="1">
  <advance width="857"/>
  <unicode hex="006D"/>
  <outline>
    <contour>
      <point x="800" y="376" type="curve" smooth="yes"/>
      <point x="800" y="355"/>
      <point x="796" y="327"/>
      <point x="792" y="303" type="curve" smooth="yes"/>
      <point x="739" y="0" type="line"/>
      <point x="636" y="0" type="line"/>
      <point x="688" y="293" type="line" smooth="yes"/>
      <point x="691" y="312"/>
      <point x="694" y="336"/>
      <point x="694" y="351" type="curve" smooth="yes"/>
      <point x="694" y="410"/>
      <point x="669" y="439"/>
      <point x="612" y="439" type="curve" smooth="yes"/>
      <point x="549" y="439"/>
      <point x="504" y="389"/>
      <point x="487" y="292" type="curve" smooth="yes"/>
      <point x="436" y="0" type="line"/>
      <point x="333" y="0" type="line"/>
      <point x="384" y="293" type="line" smooth="yes"/>
      <point x="387" y="312"/>
      <point x="391" y="335"/>
      <point x="391" y="351" type="curve" smooth="yes"/>
      <point x="391" y="410"/>
      <point x="365" y="441"/>
      <point x="308" y="441" type="curve" smooth="yes"/>
      <point x="245" y="441"/>
      <point x="201" y="388"/>
      <point x="184" y="292" type="curve" smooth="yes"/>
      <point x="133" y="0" type="line"/>
      <point x="30" y="0" type="line"/>
      <point x="122" y="525" type="line"/>
      <point x="225" y="525" type="line"/>
      <point x="217" y="478" type="line"/>
      <point x="246" y="510"/>
      <point x="283" y="536"/>
      <point x="342" y="536" type="curve" smooth="yes"/>
      <point x="411" y="536"/>
      <point x="452" y="508"/>
      <point x="476" y="457" type="curve"/>
      <point x="517" y="501"/>
      <point x="567" y="536"/>
      <point x="645" y="536" type="curve" smooth="yes"/>
      <point x="742" y="536"/>
      <point x="800" y="478"/>
    </contour>
  </outline>
</glyph>
<glyph name="n" format="1">
  <advance width="566"/>
  <unicode hex="006E"/>
  <outline>
    <contour>
      <point x="508" y="373" type="curve" smooth="yes"/>
      <point x="508" y="353"/>
      <point x="505" y="329"/>
      <point x="501" y="306" type="curve" smooth="yes"/>
      <point x="447" y="0" type="line"/>
      <point x="344" y="0" type="line"/>
      <point x="395" y="293" type="line" smooth="yes"/>
      <point x="398" y="311"/>
      <point x="400" y="329"/>
      <point x="400" y="344" type="curve" smooth="yes"/>
      <point x="400" y="410"/>
      <point x="376" y="441"/>
      <point x="315" y="441" type="curve" smooth="yes"/>
      <point x="251" y="441"/>
      <point x="200" y="391"/>
      <point x="183" y="292" type="curve" smooth="yes"/>
      <point x="132" y="0" type="line"/>
      <point x="29" y="0" type="line"/>
      <point x="122" y="525" type="line"/>
      <point x="225" y="525" type="line"/>
      <point x="217" y="480" type="line"/>
      <point x="246" y="510"/>
      <point x="287" y="536"/>
      <point x="347" y="536" type="curve" smooth="yes"/>
      <point x="450" y="536"/>
      <point x="508" y="480"/>
    </contour>
  </outline>
</glyph>
<glyph name="o" format="1">
  <advance width="566"/>
  <unicode hex="006F"/>
  <outline>
    <contour>
      <point x="519" y="278" type="curve" smooth="yes"/>
      <point x="505" y="98"/>
      <point x="384" y="-11"/>
      <point x="256" y="-11" type="curve" smooth="yes"/>
      <point x="120" y="-11"/>
      <point x="35" y="96"/>
      <point x="46" y="246" type="curve" smooth="yes"/>
      <point x="59" y="426"/>
      <point x="182" y="536"/>
      <point x="307" y="536" type="curve" smooth="yes"/>
      <point x="446" y="536"/>
      <point x="530" y="428"/>
    </contour>
    <contour>
      <point x="416" y="282" type="curve" smooth="yes"/>
      <point x="421" y="373"/>
      <point x="381" y="438"/>
      <point x="298" y="438" type="curve" smooth="yes"/>
      <point x="217" y="438"/>
      <point x="157" y="356"/>
      <point x="150" y="242" type="curve" smooth="yes"/>
      <point x="145" y="151"/>
      <point x="185" y="87"/>
      <point x="265" y="87" type="curve" smooth="yes"/>
      <point x="348" y="87"/>
      <point x="409" y="172"/>
    </contour>
  </outline>
</glyph>
<glyph name="p" format="1">
  <advance width="566"/>
  <unicode hex="0070"/>
  <outline>
    <contour>
      <point x="281" y="-11" type="curve" smooth="yes"/>
      <point x="217" y="-11"/>
      <point x="170" y="15"/>
      <point x="140" y="50" type="curve"/>
      <point x="107" y="-140" type="line"/>
      <point x="-5" y="-193" type="line"/>
      <point x="122" y="525" type="line"/>
      <point x="224" y="525" type="line"/>
      <point x="216" y="481" type="line"/>
      <point x="251" y="515"/>
      <point x="294" y="536"/>
      <point x="346" y="536" type="curve" smooth="yes"/>
      <point x="445" y="536"/>
      <point x="520" y="461"/>
      <point x="520" y="317" type="curve" smooth="yes"/>
      <point x="520" y="115"/>
      <point x="409" y="-11"/>
    </contour>
    <contour>
      <point x="415" y="311" type="curve" smooth="yes"/>
      <point x="415" y="395"/>
      <point x="377" y="441"/>
      <point x="314" y="441" type="curve" smooth="yes"/>
      <point x="261" y="441"/>
      <point x="215" y="400"/>
      <point x="197" y="382" type="curve"/>
      <point x="157" y="154" type="line"/>
      <point x="175" y="125"/>
      <point x="224" y="84"/>
      <point x="277" y="84" type="curve" smooth="yes"/>
      <point x="366" y="84"/>
      <point x="415" y="196"/>
    </contour>
  </outline>
</glyph>
<glyph name="q" format="1">
  <advance width="566"/>
  <unicode hex="0071"/>
  <outline>
    <contour>
      <point x="285" y="536" type="curve" smooth="yes"/>
      <point x="349" y="536"/>
      <point x="396" y="510"/>
      <point x="426" y="475" type="curve"/>
      <point x="434" y="525" type="line"/>
      <point x="537" y="525" type="line"/>
      <point x="420" y="-140" type="line"/>
      <point x="309" y="-193" type="line"/>
      <point x="350" y="44" type="line"/>
      <point x="315" y="10"/>
      <point x="272" y="-11"/>
      <point x="220" y="-11" type="curve" smooth="yes"/>
      <point x="121" y="-11"/>
      <point x="46" y="64"/>
      <point x="46" y="208" type="curve" smooth="yes"/>
      <point x="46" y="410"/>
      <point x="157" y="536"/>
    </contour>
    <contour>
      <point x="151" y="214" type="curve" smooth="yes"/>
      <point x="151" y="130"/>
      <point x="189" y="84"/>
      <point x="252" y="84" type="curve" smooth="yes"/>
      <point x="305" y="84"/>
      <point x="351" y="125"/>
      <point x="369" y="143" type="curve"/>
      <point x="409" y="371" type="line"/>
      <point x="391" y="400"/>
      <point x="342" y="441"/>
      <point x="289" y="441" type="curve" smooth="yes"/>
      <point x="200" y="441"/>
      <point x="151" y="329"/>
    </contour>
  </outline>
</glyph>
<glyph name="r" format="1">
  <advance width="414"/>
  <unicode hex="0072"/>
  <outline>
    <contour>
      <point x="429" y="507" type="curve"/>
      <point x="386" y="407" type="line"/>
      <point x="370" y="420"/>
      <point x="345" y="432"/>
      <point x="312" y="432" type="curve" smooth="yes"/>
      <point x="249" y="432"/>
      <point x="202" y="398"/>
      <point x="183" y="287" type="curve" smooth="yes"/>
      <point x="133" y="0" type="line"/>
      <point x="30" y="0" type="line"/>
      <point x="123" y="525" type="line"/>
      <point x="226" y="525" type="line"/>
      <point x="217" y="477" type="line"/>
      <point x="247" y="512"/>
      <point x="290" y="536"/>
      <point x="340" y="536" type="curve" smooth="yes"/>
      <point x="382" y="536"/>
      <point x="411" y="523"/>
    </contour>
  </outline>
</glyph>
<glyph name="s" format="1">
  <advance width="495"/>
  <unicode hex="0073"/>
  <outline>
    <contour>
      <point x="461" y="473" type="curve"/>
      <point x="408" y="391" type="line"/>
      <point x="368" y="422"/>
      <point x="318" y="445"/>
      <point x="260" y="445" type="curve" smooth="yes"/>
      <point x="216" y="445"/>
      <point x="190" y="427"/>
      <point x="188" y="396" type="curve" smooth="yes"/>
      <point x="187" y="366"/>
      <point x="198" y="352"/>
      <point x="285" y="312" type="curve" smooth="yes"/>
      <point x="377" y="270"/>
      <point x="429" y="232"/>
      <point x="422" y="145" type="curve" smooth="yes"/>
      <point x="412" y="27"/>
      <point x="316" y="-11"/>
      <point x="227" y="-11" type="curve" smooth="yes"/>
      <point x="136" y="-11"/>
      <point x="62" y="24"/>
      <point x="16" y="67" type="curve"/>
      <point x="71" y="143" type="line"/>
      <point x="115" y="106"/>
      <point x="167" y="80"/>
      <point x="236" y="80" type="curve" smooth="yes"/>
      <point x="287" y="80"/>
      <point x="319" y="102"/>
      <point x="321" y="140" type="curve" smooth="yes"/>
      <point x="322" y="170"/>
      <point x="306" y="189"/>
      <point x="232" y="221" type="curve" smooth="yes"/>
      <point x="128" y="265"/>
      <point x="80" y="303"/>
      <point x="87" y="390" type="curve" smooth="yes"/>
      <point x="96" y="490"/>
      <point x="170" y="536"/>
      <point x="269" y="536" type="curve" smooth="yes"/>
      <point x="355" y="536"/>
      <point x="419" y="505"/>
    </contour>
  </outline>
</glyph>
<glyph name="t" format="1">
  <advance width="399"/>
  <unicode hex="0074"/>
  <outline>
    <contour>
      <point x="380" y="525" type="line"/>
      <point x="363" y="431" type="line"/>
      <point x="239" y="431" type="line"/>
      <point x="190" y="150" type="line" smooth="yes"/>
      <point x="188" y="140"/>
      <point x="187" y="130"/>
      <point x="187" y="122" type="curve" smooth="yes"/>
      <point x="187" y="95"/>
      <point x="204" y="84"/>
      <point x="234" y="84" type="curve" smooth="yes"/>
      <point x="266" y="84"/>
      <point x="286" y="92"/>
      <point x="309" y="107" type="curve"/>
      <point x="279" y="9" type="line"/>
      <point x="253" y="-5"/>
      <point x="221" y="-11"/>
      <point x="196" y="-11" type="curve" smooth="yes"/>
      <point x="120" y="-11"/>
      <point x="81" y="28"/>
      <point x="81" y="94" type="curve" smooth="yes"/>
      <point x="81" y="105"/>
      <point x="83" y="117"/>
      <point x="85" y="130" type="curve" smooth="yes"/>
      <point x="138" y="431" type="line"/>
      <point x="63" y="431" type="line"/>
      <point x="80" y="525" type="line"/>
      <point x="155" y="525" type="line"/>
      <point x="181" y="673" type="line"/>
      <point x="292" y="729" type="line"/>
      <point x="256" y="525" type="line"/>
    </contour>
  </outline>
</glyph>
<glyph name="u" format="1">
  <advance width="566"/>
  <unicode hex="0075"/>
  <outline>
    <contour>
      <point x="57" y="152" type="curve" smooth="yes"/>
      <point x="57" y="172"/>
      <point x="60" y="196"/>
      <point x="64" y="219" type="curve" smooth="yes"/>
      <point x="118" y="525" type="line"/>
      <point x="221" y="525" type="line"/>
      <point x="170" y="232" type="line" smooth="yes"/>
      <point x="167" y="214"/>
      <point x="165" y="196"/>
      <point x="165" y="181" type="curve" smooth="yes"/>
      <point x="165" y="115"/>
      <point x="189" y="84"/>
      <point x="250" y="84" type="curve" smooth="yes"/>
      <point x="314" y="84"/>
      <point x="365" y="133"/>
      <point x="382" y="233" type="curve" smooth="yes"/>
      <point x="433" y="525" type="line"/>
      <point x="536" y="525" type="line"/>
      <point x="443" y="0" type="line"/>
      <point x="340" y="0" type="line"/>
      <point x="348" y="45" type="line"/>
      <point x="319" y="15"/>
      <point x="278" y="-11"/>
      <point x="218" y="-11" type="curve" smooth="yes"/>
      <point x="115" y="-11"/>
      <point x="57" y="45"/>
    </contour>
  </outline>
</glyph>
<glyph name="v" format="1">
  <advance width="536"/>
  <unicode hex="0076"/>
  <outline>
    <contour>
      <point x="549" y="525" type="line"/>
      <point x="269" y="0" type="line"/>
      <point x="172" y="0" type="line"/>
      <point x="79" y="525" type="line"/>
      <point x="186" y="525" type="line"/>
      <point x="234" y="197" type="line" smooth="yes"/>
      <point x="237" y="177"/>
      <point x="241" y="140"/>
      <point x="241" y="127" type="curve"/>
      <point x="246" y="140"/>
      <point x="262" y="177"/>
      <point x="272" y="197" type="curve" smooth="yes"/>
      <point x="438" y="525" type="line"/>
    </contour>
  </outline>
</glyph>
<glyph name="w" format="1">
  <advance width="737"/>
  <unicode hex="0077"/>
  <outline>
    <contour>
      <point x="745" y="525" type="line"/>
      <point x="512" y="0" type="line"/>
      <point x="418" y="0" type="line"/>
      <point x="393" y="279" type="line" smooth="yes"/>
      <point x="390" y="308"/>
      <point x="389" y="356"/>
      <point x="389" y="378" type="curve"/>
      <point x="382" y="356"/>
      <point x="364" y="308"/>
      <point x="351" y="279" type="curve" smooth="yes"/>
      <point x="226" y="0" type="line"/>
      <point x="132" y="0" type="line"/>
      <point x="85" y="525" type="line"/>
      <point x="189" y="525" type="line"/>
      <point x="205" y="255" type="line" smooth="yes"/>
      <point x="207" y="226"/>
      <point x="208" y="180"/>
      <point x="208" y="158" type="curve"/>
      <point x="216" y="180"/>
      <point x="231" y="226"/>
      <point x="245" y="255" type="curve" smooth="yes"/>
      <point x="370" y="525" type="line"/>
      <point x="458" y="525" type="line"/>
      <point x="484" y="255" type="line" smooth="yes"/>
      <point x="487" y="225"/>
      <point x="488" y="180"/>
      <point x="488" y="158" type="curve"/>
      <point x="496" y="180"/>
      <point x="512" y="226"/>
      <point x="524" y="255" type="curve" smooth="yes"/>
      <point x="639" y="525" type="line"/>
    </contour>
  </outline>
</glyph>
<glyph name="x" format="1">
  <advance width="528"/>
  <unicode hex="0078"/>
  <outline>
    <contour>
      <point x="201" y="278" type="line"/>
      <point x="93" y="525" type="line"/>
      <point x="202" y="525" type="line"/>
      <point x="202" y="525"/>
      <point x="224" y="473"/>
      <point x="240" y="437" type="curve" smooth="yes"/>
      <point x="252" y="409"/>
      <point x="270" y="364"/>
      <point x="270" y="364" type="curve"/>
      <point x="270" y="364"/>
      <point x="302" y="409"/>
      <point x="325" y="439" type="curve" smooth="yes"/>
      <point x="354" y="476"/>
      <point x="392" y="525"/>
      <point x="392" y="525" type="curve"/>
      <point x="505" y="525" type="line"/>
      <point x="310" y="275" type="line"/>
      <point x="431" y="0" type="line"/>
      <point x="322" y="0" type="line"/>
      <point x="322" y="0"/>
      <point x="292" y="69"/>
      <point x="273" y="113" type="curve" smooth="yes"/>
      <point x="261" y="141"/>
      <point x="241" y="189"/>
      <point x="241" y="189" type="curve"/>
      <point x="241" y="189"/>
      <point x="211" y="146"/>
      <point x="191" y="121" type="curve" smooth="yes"/>
      <point x="154" y="74"/>
      <point x="97" y="0"/>
      <point x="97" y="0" type="curve"/>
      <point x="-16" y="0" type="line"/>
    </contour>
  </outline>
</glyph>
<glyph name="y" format="1">
  <advance width="551"/>
  <unicode hex="0079"/>
  <outline>
    <contour>
      <point x="564" y="525" type="line"/>
      <point x="186" y="-185" type="line"/>
      <point x="76" y="-185" type="line"/>
      <point x="179" y="3" type="line"/>
      <point x="79" y="525" type="line"/>
      <point x="188" y="525" type="line"/>
      <point x="239" y="208" type="line" smooth="yes"/>
      <point x="242" y="188"/>
      <point x="249" y="136"/>
      <point x="250" y="124" type="curve"/>
      <point x="254" y="137"/>
      <point x="277" y="188"/>
      <point x="288" y="208" type="curve" smooth="yes"/>
      <point x="454" y="525" type="line"/>
    </contour>
  </outline>
</glyph>
<glyph name="z" format="1">
  <advance width="515"/>
  <unicode hex="007A"/>
  <outline>
    <contour>
      <point x="496" y="525" type="line"/>
      <point x="483" y="447" type="line"/>
      <point x="194" y="127" type="line" smooth="yes"/>
      <point x="183" y="114"/>
      <point x="166" y="97"/>
      <point x="159" y="89" type="curve"/>
      <point x="168" y="90"/>
      <point x="185" y="90"/>
      <point x="197" y="90" type="curve" smooth="yes"/>
      <point x="429" y="90" type="line"/>
      <point x="413" y="0" type="line"/>
      <point x="13" y="0" type="line"/>
      <point x="26" y="78" type="line"/>
      <point x="320" y="398" type="line" smooth="yes"/>
      <point x="332" y="411"/>
      <point x="347" y="428"/>
      <point x="354" y="436" type="curve"/>
      <point x="346" y="435"/>
      <point x="330" y="435"/>
      <point x="318" y="435" type="curve" smooth="yes"/>
      <point x="105" y="435" type="line"/>
      <point x="119" y="525" type="line"/>
    </contour>
  </outline>
</glyph>
<glyph name="braceleft" format="1">
  <advance width="423"/>
  <unicode hex="007B"/>
  <outline>
    <contour>
      <point x="446" y="705" type="curve"/>
      <point x="433" y="628" type="line"/>
      <point x="333" y="624"/>
      <point x="304" y="591"/>
      <point x="287" y="497" type="curve" smooth="yes"/>
      <point x="277" y="441" type="line" smooth="yes"/>
      <point x="260" y="344"/>
      <point x="232" y="309"/>
      <point x="176" y="295" type="curve"/>
      <point x="227" y="277"/>
      <point x="242" y="245"/>
      <point x="225" y="148" type="curve" smooth="yes"/>
      <point x="217" y="103" type="line" smooth="yes"/>
      <point x="201" y="15"/>
      <point x="227" y="-20"/>
      <point x="316" y="-33" type="curve"/>
      <point x="302" y="-110" type="line"/>
      <point x="159" y="-100"/>
      <point x="87" y="-38"/>
      <point x="114" y="102" type="curve" smooth="yes"/>
      <point x="129" y="180" type="line" smooth="yes"/>
      <point x="139" y="233"/>
      <point x="126" y="252"/>
      <point x="82" y="252" type="curve" smooth="yes"/>
      <point x="59" y="252" type="line"/>
      <point x="75" y="341" type="line"/>
      <point x="97" y="341" type="line" smooth="yes"/>
      <point x="145" y="341"/>
      <point x="159" y="359"/>
      <point x="169" y="413" type="curve" smooth="yes"/>
      <point x="186" y="503" type="line" smooth="yes"/>
      <point x="214" y="653"/>
      <point x="281" y="712"/>
    </contour>
  </outline>
</glyph>
<glyph name="bar" format="1">
  <advance width="296"/>
  <unicode hex="007C"/>
  <outline>
    <contour>
      <point x="282" y="800" type="line"/>
      <point x="108" y="-185" type="line"/>
      <point x="13" y="-185" type="line"/>
      <point x="187" y="800" type="line"/>
    </contour>
  </outline>
</glyph>
<glyph name="braceright" format="1">
  <advance width="423"/>
  <unicode hex="007D"/>
  <outline>
    <contour>
      <point x="374" y="343" type="line"/>
      <point x="358" y="254" type="line"/>
      <point x="338" y="254" type="line" smooth="yes"/>
      <point x="290" y="254"/>
      <point x="276" y="236"/>
      <point x="266" y="182" type="curve" smooth="yes"/>
      <point x="249" y="92" type="line" smooth="yes"/>
      <point x="221" y="-58"/>
      <point x="152" y="-117"/>
      <point x="-13" y="-110" type="curve"/>
      <point x="0" y="-33" type="line"/>
      <point x="101" y="-29"/>
      <point x="128" y="3"/>
      <point x="147" y="98" type="curve" smooth="yes"/>
      <point x="158" y="154" type="line" smooth="yes"/>
      <point x="177" y="251"/>
      <point x="202" y="286"/>
      <point x="258" y="300" type="curve"/>
      <point x="208" y="318"/>
      <point x="190" y="350"/>
      <point x="209" y="447" type="curve" smooth="yes"/>
      <point x="218" y="492" type="line" smooth="yes"/>
      <point x="236" y="580"/>
      <point x="206" y="615"/>
      <point x="117" y="628" type="curve"/>
      <point x="131" y="705" type="line"/>
      <point x="273" y="695"/>
      <point x="345" y="633"/>
      <point x="320" y="493" type="curve" smooth="yes"/>
      <point x="306" y="415" type="line" smooth="yes"/>
      <point x="297" y="362"/>
      <point x="309" y="343"/>
      <point x="353" y="343" type="curve" smooth="yes"/>
    </contour>
  </outline>
</glyph>
<glyph name="asciitilde" format="1">
  <advance width="558"/>
  <unicode hex="007E"/>
  <outline>
    <contour>
      <point x="544" y="424" type="line"/>
      <point x="492" y="332"/>
      <point x="442" y="283"/>
      <point x="378" y="283" type="curve" smooth="yes"/>
      <point x="299" y="283"/>
      <point x="250" y="357"/>
      <point x="197" y="357" type="curve" smooth="yes"/>
      <point x="172" y="357"/>
      <point x="155" y="339"/>
      <point x="117" y="281" type="curve"/>
      <point x="51" y="318" type="line"/>
      <point x="104" y="410"/>
      <point x="154" y="459"/>
      <point x="217" y="459" type="curve" smooth="yes"/>
      <point x="295" y="459"/>
      <point x="344" y="385"/>
      <point x="397" y="385" type="curve" smooth="yes"/>
      <point x="423" y="385"/>
      <point x="440" y="403"/>
      <point x="479" y="461" type="curve"/>
    </contour>
  </outline>
</glyph>
<glyph name="exclamdown" format="1">
  <advance width="298"/>
  <unicode hex="00A1"/>
  <outline>
    <contour>
      <point x="143" y="636" type="curve" smooth="yes"/>
      <point x="143" y="677"/>
      <point x="177" y="711"/>
      <point x="218" y="711" type="curve" smooth="yes"/>
      <point x="259" y="711"/>
      <point x="293" y="677"/>
      <point x="293" y="636" type="curve" smooth="yes"/>
      <point x="293" y="595"/>
      <point x="259" y="560"/>
      <point x="218" y="560" type="curve" smooth="yes"/>
      <point x="177" y="560"/>
      <point x="143" y="595"/>
    </contour>
    <contour>
      <point x="106" y="311" type="line"/>
      <point x="159" y="498" type="line"/>
      <point x="225" y="498" type="line"/>
      <point x="212" y="311" type="line"/>
      <point x="157" y="0" type="line"/>
      <point x="51" y="0" type="line"/>
    </contour>
  </outline>
</glyph>
<glyph name="cent" format="1">
  <advance width="509"/>
  <unicode hex="00A2"/>
  <outline>
    <contour>
      <point x="511" y="529" type="curve"/>
      <point x="435" y="464" type="line"/>
      <point x="411" y="505"/>
      <point x="368" y="535"/>
      <point x="319" y="535" type="curve" smooth="yes"/>
      <point x="237" y="535"/>
      <point x="176" y="462"/>
      <point x="167" y="337" type="curve" smooth="yes"/>
      <point x="160" y="235"/>
      <point x="206" y="178"/>
      <point x="283" y="178" type="curve" smooth="yes"/>
      <point x="324" y="178"/>
      <point x="361" y="197"/>
      <point x="401" y="234" type="curve"/>
      <point x="455" y="169" type="line"/>
      <point x="404" y="118"/>
      <point x="353" y="91"/>
      <point x="296" y="84" type="curve"/>
      <point x="279" y="-11" type="line"/>
      <point x="174" y="-11" type="line"/>
      <point x="192" y="94" type="line"/>
      <point x="106" y="127"/>
      <point x="54" y="215"/>
      <point x="63" y="341" type="curve" smooth="yes"/>
      <point x="75" y="509"/>
      <point x="174" y="609"/>
      <point x="287" y="626" type="curve"/>
      <point x="302" y="710" type="line"/>
      <point x="407" y="710" type="line"/>
      <point x="391" y="622" type="line"/>
      <point x="446" y="608"/>
      <point x="485" y="574"/>
    </contour>
  </outline>
</glyph>
<glyph name="sterling" format="1">
  <advance width="633"/>
  <unicode hex="00A3"/>
  <outline>
    <contour>
      <point x="298" y="280" type="line"/>
      <point x="287" y="227"/>
      <point x="253" y="160"/>
      <point x="188" y="97" type="curve"/>
      <point x="544" y="97" type="line"/>
      <point x="527" y="0" type="line"/>
      <point x="40" y="0" type="line"/>
      <point x="56" y="92" type="line"/>
      <point x="142" y="167"/>
      <point x="179" y="228"/>
      <point x="191" y="280" type="curve"/>
      <point x="89" y="280" type="line"/>
      <point x="106" y="373" type="line"/>
      <point x="190" y="373" type="line"/>
      <point x="178" y="425"/>
      <point x="154" y="473"/>
      <point x="154" y="526" type="curve" smooth="yes"/>
      <point x="154" y="627"/>
      <point x="244" y="711"/>
      <point x="398" y="711" type="curve" smooth="yes"/>
      <point x="505" y="711"/>
      <point x="582" y="669"/>
      <point x="638" y="606" type="curve"/>
      <point x="566" y="530" type="line"/>
      <point x="521" y="579"/>
      <point x="464" y="610"/>
      <point x="387" y="610" type="curve" smooth="yes"/>
      <point x="308" y="610"/>
      <point x="263" y="569"/>
      <point x="263" y="514" type="curve" smooth="yes"/>
      <point x="263" y="460"/>
      <point x="284" y="419"/>
      <point x="295" y="373" type="curve"/>
      <point x="448" y="373" type="line"/>
      <point x="431" y="280" type="line"/>
    </contour>
  </outline>
</glyph>
<glyph name="yen" format="1">
  <advance width="635"/>
  <unicode hex="00A5"/>
  <outline>
    <contour>
      <point x="344" y="118" type="line"/>
      <point x="323" y="0" type="line"/>
      <point x="220" y="0" type="line"/>
      <point x="241" y="118" type="line"/>
      <point x="82" y="118" type="line"/>
      <point x="98" y="210" type="line"/>
      <point x="256" y="210" type="line" smooth="yes"/>
      <point x="257" y="210"/>
      <point x="268" y="275"/>
      <point x="268" y="275" type="curve"/>
      <point x="105" y="700" type="line"/>
      <point x="221" y="700" type="line"/>
      <point x="286" y="516" type="line" smooth="yes"/>
      <point x="302" y="470"/>
      <point x="325" y="407"/>
      <point x="334" y="373" type="curve"/>
      <point x="355" y="407"/>
      <point x="396" y="470"/>
      <point x="430" y="517" type="curve" smooth="yes"/>
      <point x="562" y="700" type="line"/>
      <point x="684" y="700" type="line"/>
      <point x="371" y="273" type="line"/>
      <point x="371" y="273"/>
      <point x="360" y="210"/>
      <point x="359" y="210" type="curve"/>
      <point x="519" y="210" type="line"/>
      <point x="503" y="118" type="line"/>
    </contour>
  </outline>
</glyph>
<glyph name="section" format="1">
  <advance width="656"/>
  <unicode hex="00A7"/>
  <outline>
    <contour>
      <point x="197" y="467" type="curve"/>
      <point x="184" y="487"/>
      <point x="178" y="509"/>
      <point x="178" y="538" type="curve" smooth="yes"/>
      <point x="178" y="645"/>
      <point x="260" y="711"/>
      <point x="385" y="711" type="curve" smooth="yes"/>
      <point x="474" y="711"/>
      <point x="550" y="680"/>
      <point x="599" y="628" type="curve"/>
      <point x="529" y="549" type="line"/>
      <point x="487" y="587"/>
      <point x="434" y="611"/>
      <point x="372" y="611" type="curve" smooth="yes"/>
      <point x="328" y="611"/>
      <point x="288" y="594"/>
      <point x="288" y="547" type="curve" smooth="yes"/>
      <point x="288" y="506"/>
      <point x="334" y="489"/>
      <point x="418" y="452" type="curve" smooth="yes"/>
      <point x="547" y="395"/>
      <point x="602" y="344"/>
      <point x="602" y="261" type="curve" smooth="yes"/>
      <point x="602" y="168"/>
      <point x="527" y="113"/>
      <point x="463" y="84" type="curve"/>
      <point x="476" y="64"/>
      <point x="482" y="42"/>
      <point x="482" y="13" type="curve" smooth="yes"/>
      <point x="482" y="-94"/>
      <point x="400" y="-160"/>
      <point x="275" y="-160" type="curve" smooth="yes"/>
      <point x="186" y="-160"/>
      <point x="110" y="-129"/>
      <point x="61" y="-77" type="curve"/>
      <point x="131" y="2" type="line"/>
      <point x="173" y="-36"/>
      <point x="226" y="-60"/>
      <point x="288" y="-60" type="curve" smooth="yes"/>
      <point x="332" y="-60"/>
      <point x="372" y="-43"/>
      <point x="372" y="4" type="curve" smooth="yes"/>
      <point x="372" y="45"/>
      <point x="326" y="62"/>
      <point x="242" y="99" type="curve" smooth="yes"/>
      <point x="113" y="156"/>
      <point x="58" y="207"/>
      <point x="58" y="290" type="curve" smooth="yes"/>
      <point x="58" y="383"/>
      <point x="133" y="438"/>
    </contour>
    <contour>
      <point x="394" y="142" type="curve"/>
      <point x="448" y="167"/>
      <point x="492" y="202"/>
      <point x="492" y="247" type="curve" smooth="yes"/>
      <point x="492" y="292"/>
      <point x="462" y="317"/>
      <point x="369" y="359" type="curve" smooth="yes"/>
      <point x="327" y="378"/>
      <point x="293" y="394"/>
      <point x="265" y="409" type="curve"/>
      <point x="212" y="384"/>
      <point x="168" y="349"/>
      <point x="168" y="304" type="curve" smooth="yes"/>
      <point x="168" y="259"/>
      <point x="198" y="234"/>
      <point x="291" y="192" type="curve" smooth="yes"/>
      <point x="333" y="173"/>
      <point x="367" y="157"/>
    </contour>
  </outline>
</glyph>
<glyph name="dieresis" format="1">
  <advance width="500"/>
  <unicode hex="00A8"/>
  <outline>
    <contour>
      <point x="485" y="662" type="curve" smooth="yes"/>
      <point x="485" y="626"/>
      <point x="454" y="595"/>
      <point x="418" y="595" type="curve" smooth="yes"/>
      <point x="381" y="595"/>
      <point x="350" y="626"/>
      <point x="350" y="662" type="curve" smooth="yes"/>
      <point x="350" y="699"/>
      <point x="381" y="730"/>
      <point x="418" y="730" type="curve" smooth="yes"/>
      <point x="454" y="730"/>
      <point x="485" y="699"/>
    </contour>
    <contour>
      <point x="290" y="662" type="curve" smooth="yes"/>
      <point x="290" y="626"/>
      <point x="259" y="595"/>
      <point x="223" y="595" type="curve" smooth="yes"/>
      <point x="186" y="595"/>
      <point x="155" y="626"/>
      <point x="155" y="662" type="curve" smooth="yes"/>
      <point x="155" y="699"/>
      <point x="186" y="730"/>
      <point x="223" y="730" type="curve" smooth="yes"/>
      <point x="259" y="730"/>
      <point x="290" y="699"/>
    </contour>
  </outline>
</glyph>
<glyph name="copyright" format="1">
  <advance width="836"/>
  <unicode hex="00A9"/>
  <outline>
    <contour>
      <point x="783" y="350" type="curve" smooth="yes"/>
      <point x="783" y="145"/>
      <point x="627" y="-11"/>
      <point x="422" y="-11" type="curve" smooth="yes"/>
      <point x="217" y="-11"/>
      <point x="61" y="145"/>
      <point x="61" y="350" type="curve" smooth="yes"/>
      <point x="61" y="555"/>
      <point x="217" y="711"/>
      <point x="422" y="711" type="curve" smooth="yes"/>
      <point x="627" y="711"/>
      <point x="783" y="555"/>
    </contour>
    <contour>
      <point x="725" y="350" type="curve" smooth="yes"/>
      <point x="725" y="522"/>
      <point x="594" y="653"/>
      <point x="422" y="653" type="curve" smooth="yes"/>
      <point x="250" y="653"/>
      <point x="119" y="522"/>
      <point x="119" y="350" type="curve" smooth="yes"/>
      <point x="119" y="178"/>
      <point x="250" y="47"/>
      <point x="422" y="47" type="curve" smooth="yes"/>
      <point x="594" y="47"/>
      <point x="725" y="178"/>
    </contour>
    <contour>
      <point x="564" y="229" type="line"/>
      <point x="533" y="176"/>
      <point x="485" y="148"/>
      <point x="425" y="148" type="curve" smooth="yes"/>
      <point x="324" y="148"/>
      <point x="258" y="232"/>
      <point x="258" y="352" type="curve" smooth="yes"/>
      <point x="258" y="472"/>
      <point x="324" y="555"/>
      <point x="425" y="555" type="curve" smooth="yes"/>
      <point x="490" y="555"/>
      <point x="533" y="529"/>
      <point x="562" y="477" type="curve"/>
      <point x="503" y="440" type="line"/>
      <point x="482" y="473"/>
      <point x="463" y="488"/>
      <point x="425" y="488" type="curve" smooth="yes"/>
      <point x="360" y="488"/>
      <point x="327" y="435"/>
      <point x="327" y="352" type="curve" smooth="yes"/>
      <point x="327" y="269"/>
      <point x="360" y="215"/>
      <point x="425" y="215" type="curve" smooth="yes"/>
      <point x="463" y="215"/>
      <point x="486" y="232"/>
      <point x="508" y="267" type="curve"/>
    </contour>
  </outline>
</glyph>
<glyph name="ordfeminine" format="1">
  <advance width="456"/>
  <unicode hex="00AA"/>
  <outline>
    <contour>
      <point x="444" y="598" type="curve" smooth="yes"/>
      <point x="444" y="588"/>
      <point x="442" y="577"/>
      <point x="440" y="566" type="curve" smooth="yes"/>
      <point x="390" y="279" type="line"/>
      <point x="305" y="279" type="line"/>
      <point x="312" y="314" type="line"/>
      <point x="286" y="290"/>
      <point x="249" y="270"/>
      <point x="204" y="270" type="curve" smooth="yes"/>
      <point x="133" y="270"/>
      <point x="70" y="310"/>
      <point x="70" y="394" type="curve" smooth="yes"/>
      <point x="70" y="497"/>
      <point x="147" y="552"/>
      <point x="247" y="552" type="curve" smooth="yes"/>
      <point x="287" y="552"/>
      <point x="323" y="544"/>
      <point x="349" y="533" type="curve"/>
      <point x="356" y="566" type="line" smooth="yes"/>
      <point x="365" y="607"/>
      <point x="346" y="632"/>
      <point x="283" y="632" type="curve" smooth="yes"/>
      <point x="245" y="632"/>
      <point x="210" y="621"/>
      <point x="176" y="605" type="curve"/>
      <point x="152" y="674" type="line"/>
      <point x="176" y="687"/>
      <point x="233" y="711"/>
      <point x="293" y="711" type="curve" smooth="yes"/>
      <point x="388" y="711"/>
      <point x="444" y="675"/>
    </contour>
    <contour>
      <point x="338" y="462" type="line"/>
      <point x="316" y="473"/>
      <point x="287" y="482"/>
      <point x="245" y="482" type="curve" smooth="yes"/>
      <point x="190" y="482"/>
      <point x="156" y="454"/>
      <point x="156" y="402" type="curve" smooth="yes"/>
      <point x="156" y="367"/>
      <point x="178" y="344"/>
      <point x="224" y="344" type="curve" smooth="yes"/>
      <point x="267" y="344"/>
      <point x="302" y="368"/>
      <point x="326" y="395" type="curve"/>
    </contour>
  </outline>
</glyph>
<glyph name="guillemotleft" format="1">
  <advance width="588"/>
  <unicode hex="00AB"/>
  <outline>
    <contour>
      <point x="502" y="0" type="line"/>
      <point x="391" y="0" type="line"/>
      <point x="252" y="262" type="line"/>
      <point x="483" y="525" type="line"/>
      <point x="594" y="525" type="line"/>
      <point x="368" y="263" type="line"/>
    </contour>
    <contour>
      <point x="280" y="0" type="line"/>
      <point x="169" y="0" type="line"/>
      <point x="30" y="262" type="line"/>
      <point x="261" y="525" type="line"/>
      <point x="372" y="525" type="line"/>
      <point x="146" y="263" type="line"/>
    </contour>
  </outline>
</glyph>
<glyph name="degree" format="1">
  <advance width="486"/>
  <unicode hex="00B0"/>
  <outline>
    <contour>
      <point x="483" y="514" type="curve" smooth="yes"/>
      <point x="483" y="401"/>
      <point x="397" y="315"/>
      <point x="285" y="315" type="curve" smooth="yes"/>
      <point x="174" y="315"/>
      <point x="87" y="401"/>
      <point x="87" y="514" type="curve" smooth="yes"/>
      <point x="87" y="624"/>
      <point x="174" y="711"/>
      <point x="285" y="711" type="curve" smooth="yes"/>
      <point x="397" y="711"/>
      <point x="483" y="624"/>
    </contour>
    <contour>
      <point x="393" y="514" type="curve" smooth="yes"/>
      <point x="393" y="573"/>
      <point x="346" y="622"/>
      <point x="285" y="622" type="curve" smooth="yes"/>
      <point x="225" y="622"/>
      <point x="177" y="573"/>
      <point x="177" y="514" type="curve" smooth="yes"/>
      <point x="177" y="452"/>
      <point x="225" y="404"/>
      <point x="285" y="404" type="curve" smooth="yes"/>
      <point x="346" y="404"/>
      <point x="393" y="452"/>
    </contour>
  </outline>
</glyph>
<glyph name="acute" format="1">
  <advance width="500"/>
  <unicode hex="00B4"/>
  <outline>
    <contour>
      <point x="486" y="755" type="line"/>
      <point x="293" y="595" type="line"/>
      <point x="211" y="595" type="line"/>
      <point x="346" y="755" type="line"/>
    </contour>
  </outline>
</glyph>
<glyph name="paragraph" format="1">
  <advance width="720"/>
  <unicode hex="00B6"/>
  <outline>
    <contour>
      <point x="709" y="700" type="line"/>
      <point x="553" y="-185" type="line"/>
      <point x="454" y="-185" type="line"/>
      <point x="593" y="604" type="line"/>
      <point x="514" y="604" type="line"/>
      <point x="375" y="-185" type="line"/>
      <point x="276" y="-185" type="line"/>
      <point x="354" y="261" type="line"/>
      <point x="316" y="261" type="line" smooth="yes"/>
      <point x="171" y="261"/>
      <point x="72" y="335"/>
      <point x="83" y="474" type="curve" smooth="yes"/>
      <point x="94" y="614"/>
      <point x="201" y="700"/>
      <point x="345" y="700" type="curve" smooth="yes"/>
    </contour>
  </outline>
</glyph>
<glyph name="periodcentered" format="1">
  <advance width="254"/>
  <unicode hex="00B7"/>
  <outline>
    <contour>
      <point x="223" y="367" type="curve" smooth="yes"/>
      <point x="223" y="324"/>
      <point x="187" y="288"/>
      <point x="144" y="288" type="curve" smooth="yes"/>
      <point x="101" y="288"/>
      <point x="65" y="324"/>
      <point x="65" y="367" type="curve" smooth="yes"/>
      <point x="65" y="410"/>
      <point x="101" y="447"/>
      <point x="144" y="447" type="curve" smooth="yes"/>
      <point x="187" y="447"/>
      <point x="223" y="410"/>
    </contour>
  </outline>
</glyph>
<glyph name="cedilla" format="1">
  <advance width="500"/>
  <unicode hex="00B8"/>
  <outline>
    <contour>
      <point x="309" y="-107" type="curve" smooth="yes"/>
      <point x="305" y="-162"/>
      <point x="259" y="-193"/>
      <point x="192" y="-193" type="curve" smooth="yes"/>
      <point x="135" y="-193"/>
      <point x="90" y="-173"/>
      <point x="56" y="-148" type="curve"/>
      <point x="83" y="-115" type="line"/>
      <point x="111" y="-135"/>
      <point x="142" y="-147"/>
      <point x="180" y="-147" type="curve" smooth="yes"/>
      <point x="213" y="-147"/>
      <point x="235" y="-136"/>
      <point x="237" y="-111" type="curve" smooth="yes"/>
      <point x="238" y="-92"/>
      <point x="228" y="-81"/>
      <point x="207" y="-81" type="curve" smooth="yes"/>
      <point x="192" y="-81"/>
      <point x="181" y="-85"/>
      <point x="169" y="-92" type="curve"/>
      <point x="135" y="-78" type="line"/>
      <point x="178" y="19" type="line"/>
      <point x="227" y="19" type="line"/>
      <point x="199" y="-46" type="line"/>
      <point x="210" y="-41"/>
      <point x="223" y="-37"/>
      <point x="241" y="-37" type="curve" smooth="yes"/>
      <point x="283" y="-37"/>
      <point x="312" y="-61"/>
    </contour>
  </outline>
</glyph>
<glyph name="ordmasculine" format="1">
  <advance width="481"/>
  <unicode hex="00BA"/>
  <outline>
    <contour>
      <point x="255" y="270" type="curve" smooth="yes"/>
      <point x="155" y="270"/>
      <point x="90" y="343"/>
      <point x="90" y="451" type="curve" smooth="yes"/>
      <point x="90" y="595"/>
      <point x="184" y="711"/>
      <point x="310" y="711" type="curve" smooth="yes"/>
      <point x="407" y="711"/>
      <point x="474" y="637"/>
      <point x="474" y="529" type="curve" smooth="yes"/>
      <point x="474" y="380"/>
      <point x="371" y="270"/>
    </contour>
    <contour>
      <point x="386" y="525" type="curve" smooth="yes"/>
      <point x="386" y="588"/>
      <point x="353" y="629"/>
      <point x="296" y="629" type="curve" smooth="yes"/>
      <point x="226" y="629"/>
      <point x="178" y="553"/>
      <point x="178" y="455" type="curve" smooth="yes"/>
      <point x="178" y="390"/>
      <point x="211" y="352"/>
      <point x="264" y="352" type="curve" smooth="yes"/>
      <point x="332" y="352"/>
      <point x="386" y="431"/>
    </contour>
  </outline>
</glyph>
<glyph name="guillemotright" format="1">
  <advance width="588"/>
  <unicode hex="00BB"/>
  <outline>
    <contour>
      <point x="558" y="263" type="line"/>
      <point x="327" y="0" type="line"/>
      <point x="216" y="0" type="line"/>
      <point x="442" y="262" type="line"/>
      <point x="308" y="525" type="line"/>
      <point x="419" y="525" type="line"/>
    </contour>
    <contour>
      <point x="336" y="263" type="line"/>
      <point x="105" y="0" type="line"/>
      <point x="-6" y="0" type="line"/>
      <point x="220" y="262" type="line"/>
      <point x="86" y="525" type="line"/>
      <point x="197" y="525" type="line"/>
    </contour>
  </outline>
</glyph>
<glyph name="questiondown" format="1">
  <advance width="567"/>
  <unicode hex="00BF"/>
  <outline>
    <contour>
      <point x="297" y="636" type="curve" smooth="yes"/>
      <point x="297" y="677"/>
      <point x="331" y="711"/>
      <point x="372" y="711" type="curve" smooth="yes"/>
      <point x="413" y="711"/>
      <point x="447" y="677"/>
      <point x="447" y="636" type="curve" smooth="yes"/>
      <point x="447" y="595"/>
      <point x="413" y="560"/>
      <point x="372" y="560" type="curve" smooth="yes"/>
      <point x="331" y="560"/>
      <point x="297" y="595"/>
    </contour>
    <contour>
      <point x="36" y="159" type="curve" smooth="yes"/>
      <point x="36" y="263"/>
      <point x="86" y="312"/>
      <point x="181" y="358" type="curve" smooth="yes"/>
      <point x="246" y="389"/>
      <point x="286" y="409"/>
      <point x="298" y="496" type="curve"/>
      <point x="401" y="496" type="line"/>
      <point x="386" y="366"/>
      <point x="340" y="329"/>
      <point x="245" y="287" type="curve" smooth="yes"/>
      <point x="183" y="260"/>
      <point x="143" y="231"/>
      <point x="143" y="178" type="curve" smooth="yes"/>
      <point x="143" y="125"/>
      <point x="189" y="93"/>
      <point x="261" y="93" type="curve" smooth="yes"/>
      <point x="326" y="93"/>
      <point x="389" y="118"/>
      <point x="449" y="165" type="curve"/>
      <point x="503" y="81" type="line"/>
      <point x="433" y="24"/>
      <point x="348" y="-11"/>
      <point x="251" y="-11" type="curve" smooth="yes"/>
      <point x="114" y="-11"/>
      <point x="36" y="63"/>
    </contour>
  </outline>
</glyph>
<glyph name="Aring" format="1">
  <advance width="707"/>
  <unicode hex="00C5"/>
  <outline>
    <contour>
      <point x="495" y="645" type="curve"/>
      <point x="615" y="0" type="line"/>
      <point x="503" y="0" type="line"/>
      <point x="474" y="167" type="line"/>
      <point x="202" y="167" type="line"/>
      <point x="115" y="0" type="line"/>
      <point x="1" y="0" type="line"/>
      <point x="357" y="663" type="line"/>
      <point x="330" y="685"/>
      <point x="314" y="719"/>
      <point x="314" y="759" type="curve" smooth="yes"/>
      <point x="314" y="831"/>
      <point x="368" y="885"/>
      <point x="440" y="885" type="curve" smooth="yes"/>
      <point x="512" y="885"/>
      <point x="566" y="831"/>
      <point x="566" y="759" type="curve" smooth="yes"/>
      <point x="566" y="707"/>
      <point x="538" y="665"/>
    </contour>
    <contour>
      <point x="501" y="759" type="curve" smooth="yes"/>
      <point x="501" y="795"/>
      <point x="475" y="821"/>
      <point x="440" y="821" type="curve" smooth="yes"/>
      <point x="405" y="821"/>
      <point x="379" y="795"/>
      <point x="379" y="759" type="curve" smooth="yes"/>
      <point x="379" y="723"/>
      <point x="405" y="697"/>
      <point x="440" y="697" type="curve" smooth="yes"/>
      <point x="475" y="697"/>
      <point x="501" y="723"/>
    </contour>
    <contour>
      <point x="460" y="260" type="line"/>
      <point x="428" y="447" type="line" smooth="yes"/>
      <point x="420" y="491"/>
      <point x="412" y="543"/>
      <point x="410" y="571" type="curve"/>
      <point x="398" y="544"/>
      <point x="373" y="492"/>
      <point x="348" y="446" type="curve" smooth="yes"/>
      <point x="248" y="260" type="line"/>
    </contour>
  </outline>
</glyph>
<glyph name="AE" format="1">
  <advance width="1018"/>
  <unicode hex="00C6"/>
  <outline>
    <contour>
      <point x="1022" y="700" type="line"/>
      <point x="1004" y="598" type="line"/>
      <point x="662" y="598" type="line"/>
      <point x="632" y="425" type="line"/>
      <point x="829" y="425" type="line"/>
      <point x="811" y="323" type="line"/>
      <point x="614" y="323" type="line"/>
      <point x="575" y="102" type="line"/>
      <point x="932" y="102" type="line"/>
      <point x="914" y="0" type="line"/>
      <point x="451" y="0" type="line"/>
      <point x="478" y="151" type="line"/>
      <point x="216" y="151" type="line"/>
      <point x="89" y="0" type="line"/>
      <point x="-35" y="0" type="line"/>
      <point x="553" y="700" type="line"/>
    </contour>
    <contour>
      <point x="554" y="564" type="curve"/>
      <point x="535" y="537"/>
      <point x="489" y="479"/>
      <point x="459" y="443" type="curve" smooth="yes"/>
      <point x="293" y="248" type="line"/>
      <point x="495" y="248" type="line"/>
      <point x="527" y="423" type="line" smooth="yes"/>
      <point x="536" y="470"/>
      <point x="548" y="536"/>
    </contour>
  </outline>
</glyph>
<glyph name="Ccedilla" format="1">
  <advance width="651"/>
  <unicode hex="00C7"/>
  <outline>
    <contour>
      <point x="266" y="-6" type="line"/>
      <point x="147" y="15"/>
      <point x="65" y="111"/>
      <point x="65" y="277" type="curve" smooth="yes"/>
      <point x="65" y="538"/>
      <point x="224" y="711"/>
      <point x="414" y="711" type="curve" smooth="yes"/>
      <point x="529" y="711"/>
      <point x="606" y="654"/>
      <point x="642" y="563" type="curve"/>
      <point x="543" y="516" type="line"/>
      <point x="514" y="574"/>
      <point x="472" y="608"/>
      <point x="402" y="608" type="curve" smooth="yes"/>
      <point x="277" y="608"/>
      <point x="173" y="475"/>
      <point x="173" y="292" type="curve" smooth="yes"/>
      <point x="173" y="165"/>
      <point x="233" y="92"/>
      <point x="326" y="92" type="curve" smooth="yes"/>
      <point x="393" y="92"/>
      <point x="445" y="127"/>
      <point x="492" y="184" type="curve"/>
      <point x="568" y="118" type="line"/>
      <point x="508" y="37"/>
      <point x="425" y="-11"/>
      <point x="320" y="-11" type="curve" smooth="yes"/>
      <point x="318" y="-11"/>
      <point x="316" y="-11"/>
      <point x="313" y="-11" type="curve"/>
      <point x="298" y="-46" type="line"/>
      <point x="309" y="-41"/>
      <point x="322" y="-37"/>
      <point x="340" y="-37" type="curve" smooth="yes"/>
      <point x="382" y="-37"/>
      <point x="411" y="-61"/>
      <point x="408" y="-107" type="curve" smooth="yes"/>
      <point x="404" y="-162"/>
      <point x="358" y="-193"/>
      <point x="291" y="-193" type="curve" smooth="yes"/>
      <point x="234" y="-193"/>
      <point x="189" y="-173"/>
      <point x="155" y="-148" type="curve"/>
      <point x="182" y="-115" type="line"/>
      <point x="210" y="-135"/>
      <point x="241" y="-147"/>
      <point x="279" y="-147" type="curve" smooth="yes"/>
      <point x="312" y="-147"/>
      <point x="334" y="-136"/>
      <point x="336" y="-111" type="curve" smooth="yes"/>
      <point x="337" y="-92"/>
      <point x="327" y="-81"/>
      <point x="306" y="-81" type="curve" smooth="yes"/>
      <point x="291" y="-81"/>
      <point x="280" y="-85"/>
      <point x="268" y="-92" type="curve"/>
      <point x="234" y="-78" type="line"/>
    </contour>
  </outline>
</glyph>
<glyph name="Eth" format="1">
  <advance width="695"/>
  <unicode hex="00D0"/>
  <outline>
    <contour>
      <point x="656" y="370" type="curve" smooth="yes"/>
      <point x="635" y="97"/>
      <point x="432" y="0"/>
      <point x="259" y="0" type="curve" smooth="yes"/>
      <point x="60" y="0" type="line"/>
      <point x="116" y="316" type="line"/>
      <point x="50" y="316" type="line"/>
      <point x="67" y="416" type="line"/>
      <point x="133" y="416" type="line"/>
      <point x="183" y="700" type="line"/>
      <point x="322" y="700" type="line" smooth="yes"/>
      <point x="544" y="700"/>
      <point x="673" y="595"/>
    </contour>
    <contour>
      <point x="548" y="373" type="curve" smooth="yes"/>
      <point x="557" y="524"/>
      <point x="483" y="597"/>
      <point x="317" y="597" type="curve" smooth="yes"/>
      <point x="267" y="597" type="line"/>
      <point x="235" y="416" type="line"/>
      <point x="358" y="416" type="line"/>
      <point x="341" y="316" type="line"/>
      <point x="218" y="316" type="line"/>
      <point x="180" y="103" type="line"/>
      <point x="272" y="103" type="line" smooth="yes"/>
      <point x="411" y="103"/>
      <point x="537" y="190"/>
    </contour>
  </outline>
</glyph>
<glyph name="Oslash" format="1">
  <advance width="707"/>
  <unicode hex="00D8"/>
  <outline>
    <contour>
      <point x="141" y="61" type="line"/>
      <point x="76" y="127"/>
      <point x="49" y="236"/>
      <point x="73" y="370" type="curve" smooth="yes"/>
      <point x="111" y="579"/>
      <point x="246" y="711"/>
      <point x="416" y="711" type="curve" smooth="yes"/>
      <point x="461" y="711"/>
      <point x="501" y="702"/>
      <point x="535" y="685" type="curve"/>
      <point x="576" y="750" type="line"/>
      <point x="674" y="750" type="line"/>
      <point x="602" y="635" type="line"/>
      <point x="664" y="568"/>
      <point x="689" y="460"/>
      <point x="666" y="330" type="curve" smooth="yes"/>
      <point x="629" y="124"/>
      <point x="495" y="-11"/>
      <point x="328" y="-11" type="curve" smooth="yes"/>
      <point x="283" y="-11"/>
      <point x="243" y="-3"/>
      <point x="209" y="13" type="curve"/>
      <point x="169" y="-50" type="line"/>
      <point x="71" y="-50" type="line"/>
    </contour>
    <contour>
      <point x="205" y="163" type="curve"/>
      <point x="476" y="592" type="line"/>
      <point x="454" y="604"/>
      <point x="429" y="610"/>
      <point x="400" y="610" type="curve" smooth="yes"/>
      <point x="295" y="610"/>
      <point x="207" y="515"/>
      <point x="180" y="364" type="curve" smooth="yes"/>
      <point x="165" y="281"/>
      <point x="176" y="211"/>
    </contour>
    <contour>
      <point x="537" y="532" type="curve"/>
      <point x="267" y="105" type="line"/>
      <point x="287" y="95"/>
      <point x="310" y="90"/>
      <point x="335" y="90" type="curve" smooth="yes"/>
      <point x="446" y="90"/>
      <point x="532" y="184"/>
      <point x="559" y="336" type="curve" smooth="yes"/>
      <point x="573" y="416"/>
      <point x="564" y="484"/>
    </contour>
  </outline>
</glyph>
<glyph name="Thorn" format="1">
  <advance width="641"/>
  <unicode hex="00DE"/>
  <outline>
    <contour>
      <point x="616" y="373" type="curve" smooth="yes"/>
      <point x="602" y="208"/>
      <point x="488" y="144"/>
      <point x="340" y="144" type="curve" smooth="yes"/>
      <point x="175" y="144" type="line"/>
      <point x="150" y="0" type="line"/>
      <point x="45" y="0" type="line"/>
      <point x="168" y="700" type="line"/>
      <point x="273" y="700" type="line"/>
      <point x="252" y="583" type="line"/>
      <point x="386" y="583" type="line" smooth="yes"/>
      <point x="525" y="583"/>
      <point x="627" y="511"/>
    </contour>
    <contour>
      <point x="508" y="371" type="curve" smooth="yes"/>
      <point x="512" y="445"/>
      <point x="462" y="482"/>
      <point x="375" y="482" type="curve" smooth="yes"/>
      <point x="235" y="482" type="line"/>
      <point x="193" y="245" type="line"/>
      <point x="350" y="245" type="line" smooth="yes"/>
      <point x="444" y="245"/>
      <point x="503" y="290"/>
    </contour>
  </outline>
</glyph>
<glyph name="germandbls" format="1">
  <advance width="574"/>
  <unicode hex="00DF"/>
  <outline>
    <contour>
      <point x="406" y="396" type="curve"/>
      <point x="463" y="380"/>
      <point x="523" y="335"/>
      <point x="523" y="241" type="curve" smooth="yes"/>
      <point x="523" y="71"/>
      <point x="407" y="1"/>
      <point x="255" y="1" type="curve" smooth="yes"/>
      <point x="241" y="1"/>
      <point x="226" y="2"/>
      <point x="215" y="3" type="curve"/>
      <point x="230" y="97" type="line"/>
      <point x="236" y="96"/>
      <point x="256" y="96"/>
      <point x="260" y="96" type="curve" smooth="yes"/>
      <point x="359" y="96"/>
      <point x="419" y="145"/>
      <point x="419" y="236" type="curve" smooth="yes"/>
      <point x="419" y="304"/>
      <point x="374" y="349"/>
      <point x="285" y="349" type="curve" smooth="yes"/>
      <point x="276" y="349" type="line"/>
      <point x="292" y="442" type="line"/>
      <point x="307" y="442" type="line" smooth="yes"/>
      <point x="379" y="442"/>
      <point x="422" y="489"/>
      <point x="422" y="553" type="curve" smooth="yes"/>
      <point x="422" y="596"/>
      <point x="391" y="631"/>
      <point x="334" y="631" type="curve" smooth="yes"/>
      <point x="269" y="631"/>
      <point x="238" y="592"/>
      <point x="226" y="526" type="curve" smooth="yes"/>
      <point x="109" y="-138" type="line"/>
      <point x="-3" y="-193" type="line"/>
      <point x="123" y="526" type="line" smooth="yes"/>
      <point x="148" y="669"/>
      <point x="223" y="726"/>
      <point x="339" y="726" type="curve" smooth="yes"/>
      <point x="452" y="726"/>
      <point x="526" y="663"/>
      <point x="526" y="569" type="curve" smooth="yes"/>
      <point x="526" y="478"/>
      <point x="475" y="414"/>
    </contour>
  </outline>
</glyph>
<glyph name="ae" format="1">
  <advance width="853"/>
  <unicode hex="00E6"/>
  <outline>
    <contour>
      <point x="799" y="323" type="curve" smooth="yes"/>
      <point x="799" y="286"/>
      <point x="794" y="252"/>
      <point x="786" y="227" type="curve"/>
      <point x="457" y="227" type="line"/>
      <point x="449" y="137"/>
      <point x="500" y="87"/>
      <point x="576" y="87" type="curve" smooth="yes"/>
      <point x="614" y="87"/>
      <point x="650" y="100"/>
      <point x="687" y="125" type="curve"/>
      <point x="737" y="51" type="line"/>
      <point x="682" y="8"/>
      <point x="623" y="-11"/>
      <point x="565" y="-11" type="curve" smooth="yes"/>
      <point x="487" y="-11"/>
      <point x="428" y="23"/>
      <point x="394" y="74" type="curve"/>
      <point x="340" y="25"/>
      <point x="278" y="-11"/>
      <point x="198" y="-11" type="curve" smooth="yes"/>
      <point x="96" y="-11"/>
      <point x="24" y="49"/>
      <point x="32" y="161" type="curve" smooth="yes"/>
      <point x="41" y="282"/>
      <point x="141" y="338"/>
      <point x="256" y="338" type="curve" smooth="yes"/>
      <point x="300" y="338"/>
      <point x="347" y="326"/>
      <point x="375" y="312" type="curve"/>
      <point x="383" y="356" type="line" smooth="yes"/>
      <point x="384" y="363"/>
      <point x="385" y="372"/>
      <point x="385" y="379" type="curve" smooth="yes"/>
      <point x="385" y="422"/>
      <point x="357" y="447"/>
      <point x="299" y="447" type="curve" smooth="yes"/>
      <point x="250" y="447"/>
      <point x="207" y="436"/>
      <point x="163" y="414" type="curve"/>
      <point x="134" y="493" type="line"/>
      <point x="177" y="514"/>
      <point x="238" y="536"/>
      <point x="310" y="536" type="curve" smooth="yes"/>
      <point x="385" y="536"/>
      <point x="435" y="515"/>
      <point x="460" y="466" type="curve"/>
      <point x="499" y="509"/>
      <point x="551" y="536"/>
      <point x="612" y="536" type="curve" smooth="yes"/>
      <point x="742" y="536"/>
      <point x="799" y="436"/>
    </contour>
    <contour>
      <point x="701" y="310" type="line"/>
      <point x="708" y="385"/>
      <point x="677" y="443"/>
      <point x="600" y="443" type="curve" smooth="yes"/>
      <point x="532" y="443"/>
      <point x="489" y="386"/>
      <point x="471" y="310" type="curve"/>
    </contour>
    <contour>
      <point x="360" y="146" type="curve"/>
      <point x="357" y="156"/>
      <point x="358" y="184"/>
      <point x="358" y="197" type="curve"/>
      <point x="361" y="227" type="line"/>
      <point x="333" y="242"/>
      <point x="300" y="253"/>
      <point x="247" y="253" type="curve" smooth="yes"/>
      <point x="181" y="253"/>
      <point x="138" y="220"/>
      <point x="135" y="160" type="curve" smooth="yes"/>
      <point x="133" y="113"/>
      <point x="158" y="78"/>
      <point x="223" y="78" type="curve" smooth="yes"/>
      <point x="272" y="78"/>
      <point x="322" y="107"/>
    </contour>
  </outline>
</glyph>
<glyph name="ccedilla" format="1">
  <advance width="518"/>
  <unicode hex="00E7"/>
  <outline>
    <contour>
      <point x="191" y="-3" type="line"/>
      <point x="93" y="24"/>
      <point x="36" y="119"/>
      <point x="46" y="248" type="curve" smooth="yes"/>
      <point x="59" y="431"/>
      <point x="179" y="536"/>
      <point x="309" y="536" type="curve" smooth="yes"/>
      <point x="409" y="536"/>
      <point x="460" y="487"/>
      <point x="494" y="434" type="curve"/>
      <point x="418" y="365" type="line"/>
      <point x="393" y="404"/>
      <point x="358" y="438"/>
      <point x="301" y="438" type="curve" smooth="yes"/>
      <point x="218" y="438"/>
      <point x="158" y="359"/>
      <point x="150" y="243" type="curve" smooth="yes"/>
      <point x="144" y="148"/>
      <point x="185" y="87"/>
      <point x="267" y="87" type="curve" smooth="yes"/>
      <point x="309" y="87"/>
      <point x="345" y="107"/>
      <point x="384" y="143" type="curve"/>
      <point x="439" y="73" type="line"/>
      <point x="383" y="18"/>
      <point x="322" y="-11"/>
      <point x="254" y="-11" type="curve" smooth="yes"/>
      <point x="248" y="-11"/>
      <point x="243" y="-11"/>
      <point x="237" y="-10" type="curve"/>
      <point x="222" y="-46" type="line"/>
      <point x="233" y="-41"/>
      <point x="246" y="-37"/>
      <point x="264" y="-37" type="curve" smooth="yes"/>
      <point x="306" y="-37"/>
      <point x="335" y="-61"/>
      <point x="332" y="-107" type="curve" smooth="yes"/>
      <point x="328" y="-162"/>
      <point x="282" y="-193"/>
      <point x="215" y="-193" type="curve" smooth="yes"/>
      <point x="158" y="-193"/>
      <point x="113" y="-173"/>
      <point x="79" y="-148" type="curve"/>
      <point x="106" y="-115" type="line"/>
      <point x="134" y="-135"/>
      <point x="165" y="-147"/>
      <point x="203" y="-147" type="curve" smooth="yes"/>
      <point x="236" y="-147"/>
      <point x="258" y="-136"/>
      <point x="260" y="-111" type="curve" smooth="yes"/>
      <point x="261" y="-92"/>
      <point x="251" y="-81"/>
      <point x="230" y="-81" type="curve" smooth="yes"/>
      <point x="215" y="-81"/>
      <point x="204" y="-85"/>
      <point x="192" y="-92" type="curve"/>
      <point x="158" y="-78" type="line"/>
    </contour>
  </outline>
</glyph>
<glyph name="eth" format="1">
  <advance width="566"/>
  <unicode hex="00F0"/>
  <outline>
    <contour>
      <point x="393" y="671" type="curve"/>
      <point x="438" y="711" type="line"/>
      <point x="488" y="659" type="line"/>
      <point x="451" y="626" type="line"/>
      <point x="499" y="575"/>
      <point x="530" y="498"/>
      <point x="530" y="382" type="curve" smooth="yes"/>
      <point x="530" y="96"/>
      <point x="388" y="-11"/>
      <point x="252" y="-11" type="curve" smooth="yes"/>
      <point x="125" y="-11"/>
      <point x="42" y="73"/>
      <point x="42" y="195" type="curve" smooth="yes"/>
      <point x="42" y="370"/>
      <point x="169" y="479"/>
      <point x="291" y="479" type="curve" smooth="yes"/>
      <point x="367" y="479"/>
      <point x="414" y="453"/>
      <point x="442" y="414" type="curve"/>
      <point x="436" y="473"/>
      <point x="422" y="526"/>
      <point x="383" y="566" type="curve"/>
      <point x="324" y="513" type="line"/>
      <point x="274" y="565" type="line"/>
      <point x="321" y="607" type="line"/>
      <point x="299" y="616"/>
      <point x="274" y="624"/>
      <point x="244" y="629" type="curve"/>
      <point x="258" y="713" type="line"/>
      <point x="307" y="706"/>
      <point x="353" y="693"/>
    </contour>
    <contour>
      <point x="410" y="270" type="curve" smooth="yes"/>
      <point x="410" y="342"/>
      <point x="363" y="386"/>
      <point x="290" y="386" type="curve" smooth="yes"/>
      <point x="208" y="386"/>
      <point x="148" y="308"/>
      <point x="148" y="198" type="curve" smooth="yes"/>
      <point x="148" y="126"/>
      <point x="187" y="83"/>
      <point x="261" y="83" type="curve" smooth="yes"/>
      <point x="345" y="83"/>
      <point x="410" y="164"/>
    </contour>
  </outline>
</glyph>
<glyph name="oslash" format="1">
  <advance width="566"/>
  <unicode hex="00F8"/>
  <outline>
    <contour>
      <point x="100" y="55" type="curve"/>
      <point x="60" y="101"/>
      <point x="41" y="168"/>
      <point x="46" y="246" type="curve" smooth="yes"/>
      <point x="59" y="426"/>
      <point x="182" y="536"/>
      <point x="307" y="536" type="curve" smooth="yes"/>
      <point x="345" y="536"/>
      <point x="379" y="528"/>
      <point x="409" y="513" type="curve"/>
      <point x="451" y="575" type="line"/>
      <point x="543" y="575" type="line"/>
      <point x="469" y="465" type="line"/>
      <point x="507" y="419"/>
      <point x="524" y="354"/>
      <point x="519" y="278" type="curve" smooth="yes"/>
      <point x="506" y="98"/>
      <point x="384" y="-11"/>
      <point x="256" y="-11" type="curve" smooth="yes"/>
      <point x="221" y="-11"/>
      <point x="189" y="-4"/>
      <point x="161" y="9" type="curve"/>
      <point x="140" y="-22"/>
      <point x="121" y="-50"/>
      <point x="121" y="-50" type="curve"/>
      <point x="29" y="-50" type="line"/>
      <point x="29" y="-50"/>
      <point x="100" y="56"/>
    </contour>
    <contour>
      <point x="163" y="149" type="curve"/>
      <point x="353" y="431" type="line"/>
      <point x="338" y="439"/>
      <point x="319" y="444"/>
      <point x="298" y="444" type="curve" smooth="yes"/>
      <point x="217" y="444"/>
      <point x="156" y="356"/>
      <point x="150" y="242" type="curve" smooth="yes"/>
      <point x="148" y="207"/>
      <point x="152" y="175"/>
    </contour>
    <contour>
      <point x="404" y="370" type="curve"/>
      <point x="404" y="370"/>
      <point x="216" y="92"/>
      <point x="216" y="91" type="curve"/>
      <point x="231" y="85"/>
      <point x="247" y="81"/>
      <point x="265" y="81" type="curve" smooth="yes"/>
      <point x="348" y="81"/>
      <point x="410" y="172"/>
      <point x="416" y="282" type="curve" smooth="yes"/>
      <point x="418" y="315"/>
      <point x="414" y="345"/>
    </contour>
  </outline>
</glyph>
<glyph name="thorn" format="1">
  <advance width="566"/>
  <unicode hex="00FE"/>
  <outline>
    <contour>
      <point x="519" y="283" type="curve" smooth="yes"/>
      <point x="504" y="98"/>
      <point x="401" y="-11"/>
      <point x="278" y="-11" type="curve" smooth="yes"/>
      <point x="217" y="-11"/>
      <point x="171" y="15"/>
      <point x="141" y="50" type="curve"/>
      <point x="108" y="-140" type="line"/>
      <point x="-4" y="-193" type="line"/>
      <point x="149" y="676" type="line"/>
      <point x="260" y="729" type="line"/>
      <point x="216" y="481" type="line"/>
      <point x="251" y="515"/>
      <point x="295" y="536"/>
      <point x="347" y="536" type="curve" smooth="yes"/>
      <point x="454" y="536"/>
      <point x="532" y="452"/>
    </contour>
    <contour>
      <point x="415" y="283" type="curve" smooth="yes"/>
      <point x="422" y="385"/>
      <point x="385" y="441"/>
      <point x="315" y="441" type="curve" smooth="yes"/>
      <point x="272" y="441"/>
      <point x="230" y="412"/>
      <point x="198" y="382" type="curve"/>
      <point x="158" y="154" type="line"/>
      <point x="176" y="125"/>
      <point x="228" y="84"/>
      <point x="278" y="84" type="curve" smooth="yes"/>
      <point x="349" y="84"/>
      <point x="407" y="155"/>
    </contour>
  </outline>
</glyph>
<glyph name="Lslash" format="1">
  <advance width="606"/>
  <unicode hex="0141"/>
  <outline>
    <contour>
      <point x="510" y="0" type="line"/>
      <point x="60" y="0" type="line"/>
      <point x="102" y="234" type="line"/>
      <point x="26" y="182" type="line"/>
      <point x="47" y="297" type="line"/>
      <point x="122" y="349" type="line"/>
      <point x="184" y="700" type="line"/>
      <point x="287" y="700" type="line"/>
      <point x="238" y="421" type="line"/>
      <point x="398" y="536" type="line"/>
      <point x="378" y="421" type="line"/>
      <point x="217" y="306" type="line"/>
      <point x="181" y="103" type="line"/>
      <point x="528" y="103" type="line"/>
    </contour>
  </outline>
</glyph>
<glyph name="lslash" format="1">
  <advance width="285"/>
  <unicode hex="0142"/>
  <outline>
    <contour>
      <point x="262" y="357" type="line"/>
      <point x="202" y="312" type="line"/>
      <point x="147" y="0" type="line"/>
      <point x="46" y="0" type="line"/>
      <point x="88" y="238" type="line"/>
      <point x="29" y="199" type="line"/>
      <point x="50" y="314" type="line"/>
      <point x="109" y="354" type="line"/>
      <point x="165" y="676" type="line"/>
      <point x="276" y="729" type="line"/>
      <point x="223" y="428" type="line"/>
      <point x="282" y="472" type="line"/>
    </contour>
  </outline>
</glyph>
<glyph name="OE" format="1">
  <advance width="1058"/>
  <unicode hex="0152"/>
  <outline>
    <contour>
      <point x="610" y="617" type="curve"/>
      <point x="625" y="700" type="line"/>
      <point x="1062" y="700" type="line"/>
      <point x="1044" y="598" type="line"/>
      <point x="702" y="598" type="line"/>
      <point x="672" y="425" type="line"/>
      <point x="869" y="425" type="line"/>
      <point x="851" y="323" type="line"/>
      <point x="654" y="323" type="line"/>
      <point x="615" y="102" type="line"/>
      <point x="972" y="102" type="line"/>
      <point x="964" y="0" type="line"/>
      <point x="502" y="0" type="line"/>
      <point x="515" y="76" type="line"/>
      <point x="471" y="22"/>
      <point x="415" y="-11"/>
      <point x="328" y="-11" type="curve" smooth="yes"/>
      <point x="137" y="-11"/>
      <point x="32" y="144"/>
      <point x="73" y="370" type="curve" smooth="yes"/>
      <point x="111" y="579"/>
      <point x="246" y="711"/>
      <point x="416" y="711" type="curve" smooth="yes"/>
      <point x="504" y="711"/>
      <point x="569" y="677"/>
    </contour>
    <contour>
      <point x="559" y="336" type="curve" smooth="yes"/>
      <point x="588" y="499"/>
      <point x="520" y="610"/>
      <point x="400" y="610" type="curve" smooth="yes"/>
      <point x="295" y="610"/>
      <point x="207" y="515"/>
      <point x="180" y="364" type="curve" smooth="yes"/>
      <point x="151" y="203"/>
      <point x="218" y="90"/>
      <point x="335" y="90" type="curve" smooth="yes"/>
      <point x="446" y="90"/>
      <point x="532" y="184"/>
    </contour>
  </outline>
</glyph>
<glyph name="oe" format="1">
  <advance width="914"/>
  <unicode hex="0153"/>
  <outline>
    <contour>
      <point x="447" y="93" type="curve"/>
      <point x="400" y="26"/>
      <point x="330" y="-11"/>
      <point x="255" y="-11" type="curve" smooth="yes"/>
      <point x="119" y="-11"/>
      <point x="35" y="96"/>
      <point x="45" y="246" type="curve" smooth="yes"/>
      <point x="57" y="426"/>
      <point x="181" y="536"/>
      <point x="306" y="536" type="curve" smooth="yes"/>
      <point x="390" y="536"/>
      <point x="451" y="496"/>
      <point x="482" y="431" type="curve"/>
      <point x="527" y="498"/>
      <point x="593" y="536"/>
      <point x="670" y="536" type="curve" smooth="yes"/>
      <point x="796" y="536"/>
      <point x="860" y="446"/>
      <point x="860" y="324" type="curve" smooth="yes"/>
      <point x="860" y="290"/>
      <point x="855" y="256"/>
      <point x="847" y="227" type="curve"/>
      <point x="514" y="227" type="line"/>
      <point x="506" y="136"/>
      <point x="558" y="82"/>
      <point x="635" y="82" type="curve" smooth="yes"/>
      <point x="678" y="82"/>
      <point x="714" y="99"/>
      <point x="753" y="123" type="curve"/>
      <point x="798" y="51" type="line"/>
      <point x="744" y="10"/>
      <point x="688" y="-11"/>
      <point x="621" y="-11" type="curve" smooth="yes"/>
      <point x="537" y="-11"/>
      <point x="478" y="27"/>
    </contour>
    <contour>
      <point x="762" y="310" type="line"/>
      <point x="769" y="386"/>
      <point x="737" y="443"/>
      <point x="659" y="443" type="curve" smooth="yes"/>
      <point x="589" y="443"/>
      <point x="546" y="387"/>
      <point x="527" y="310" type="curve"/>
    </contour>
    <contour>
      <point x="415" y="282" type="curve" smooth="yes"/>
      <point x="420" y="373"/>
      <point x="380" y="438"/>
      <point x="297" y="438" type="curve" smooth="yes"/>
      <point x="216" y="438"/>
      <point x="155" y="356"/>
      <point x="149" y="242" type="curve" smooth="yes"/>
      <point x="144" y="151"/>
      <point x="184" y="87"/>
      <point x="264" y="87" type="curve" smooth="yes"/>
      <point x="347" y="87"/>
      <point x="409" y="172"/>
    </contour>
  </outline>
</glyph>
<glyph name="florin" format="1">
  <advance width="403"/>
  <unicode hex="0192"/>
  <outline>
    <contour>
      <point x="430" y="697" type="curve"/>
      <point x="414" y="607" type="line"/>
      <point x="398" y="615"/>
      <point x="367" y="621"/>
      <point x="340" y="621" type="curve" smooth="yes"/>
      <point x="306" y="621"/>
      <point x="288" y="607"/>
      <point x="282" y="566" type="curve" smooth="yes"/>
      <point x="276" y="525" type="line"/>
      <point x="379" y="525" type="line"/>
      <point x="362" y="429" type="line"/>
      <point x="259" y="429" type="line"/>
      <point x="159" y="-138" type="line"/>
      <point x="46" y="-193" type="line"/>
      <point x="156" y="429" type="line"/>
      <point x="78" y="429" type="line"/>
      <point x="95" y="525" type="line"/>
      <point x="173" y="525" type="line"/>
      <point x="182" y="579" type="line" smooth="yes"/>
      <point x="198" y="675"/>
      <point x="247" y="711"/>
      <point x="329" y="711" type="curve" smooth="yes"/>
      <point x="370" y="711"/>
      <point x="407" y="705"/>
    </contour>
  </outline>
</glyph>
<glyph name="circumflex" format="1">
  <advance width="500"/>
  <unicode hex="02C6"/>
  <outline>
    <contour>
      <point x="485" y="595" type="line"/>
      <point x="406" y="595" type="line"/>
      <point x="326" y="683" type="line"/>
      <point x="216" y="595" type="line"/>
      <point x="131" y="595" type="line"/>
      <point x="276" y="755" type="line"/>
      <point x="396" y="755" type="line"/>
    </contour>
  </outline>
</glyph>
<glyph name="caron" format="1">
  <advance width="500"/>
  <unicode hex="02C7"/>
  <outline>
    <contour>
      <point x="513" y="755" type="line"/>
      <point x="368" y="595" type="line"/>
      <point x="248" y="595" type="line"/>
      <point x="159" y="755" type="line"/>
      <point x="238" y="755" type="line"/>
      <point x="318" y="667" type="line"/>
      <point x="428" y="755" type="line"/>
    </contour>
  </outline>
</glyph>
<glyph name="breve" format="1">
  <advance width="500"/>
  <unicode hex="02D8"/>
  <outline>
    <contour>
      <point x="513" y="755" type="line"/>
      <point x="489" y="654"/>
      <point x="421" y="595"/>
      <point x="315" y="595" type="curve" smooth="yes"/>
      <point x="215" y="595"/>
      <point x="150" y="654"/>
      <point x="159" y="755" type="curve"/>
      <point x="230" y="755" type="line"/>
      <point x="228" y="698"/>
      <point x="262" y="671"/>
      <point x="325" y="671" type="curve" smooth="yes"/>
      <point x="386" y="671"/>
      <point x="423" y="697"/>
      <point x="443" y="755" type="curve"/>
    </contour>
  </outline>
</glyph>
<glyph name="dotaccent" format="1">
  <advance width="500"/>
  <unicode hex="02D9"/>
  <outline>
    <contour>
      <point x="387" y="662" type="curve" smooth="yes"/>
      <point x="387" y="626"/>
      <point x="356" y="595"/>
      <point x="320" y="595" type="curve" smooth="yes"/>
      <point x="283" y="595"/>
      <point x="252" y="626"/>
      <point x="252" y="662" type="curve" smooth="yes"/>
      <point x="252" y="699"/>
      <point x="283" y="730"/>
      <point x="320" y="730" type="curve" smooth="yes"/>
      <point x="356" y="730"/>
      <point x="387" y="699"/>
    </contour>
  </outline>
</glyph>
<glyph name="ring" format="1">
  <advance width="500"/>
  <unicode hex="02DA"/>
  <outline>
    <contour>
      <point x="455" y="720" type="curve" smooth="yes"/>
      <point x="455" y="648"/>
      <point x="401" y="595"/>
      <point x="329" y="595" type="curve" smooth="yes"/>
      <point x="257" y="595"/>
      <point x="203" y="648"/>
      <point x="203" y="720" type="curve" smooth="yes"/>
      <point x="203" y="792"/>
      <point x="257" y="846"/>
      <point x="329" y="846" type="curve" smooth="yes"/>
      <point x="401" y="846"/>
      <point x="455" y="792"/>
    </contour>
    <contour>
      <point x="390" y="720" type="curve" smooth="yes"/>
      <point x="390" y="756"/>
      <point x="364" y="782"/>
      <point x="329" y="782" type="curve" smooth="yes"/>
      <point x="294" y="782"/>
      <point x="268" y="756"/>
      <point x="268" y="720" type="curve" smooth="yes"/>
      <point x="268" y="684"/>
      <point x="294" y="658"/>
      <point x="329" y="658" type="curve" smooth="yes"/>
      <point x="364" y="658"/>
      <point x="390" y="684"/>
    </contour>
  </outline>
</glyph>
<glyph name="ogonek" format="1">
  <advance width="500"/>
  <unicode hex="02DB"/>
  <outline>
    <contour>
      <point x="300" y="-153" type="line"/>
      <point x="262" y="-175"/>
      <point x="219" y="-193"/>
      <point x="179" y="-193" type="curve" smooth="yes"/>
      <point x="116" y="-193"/>
      <point x="82" y="-163"/>
      <point x="86" y="-111" type="curve" smooth="yes"/>
      <point x="90" y="-68"/>
      <point x="126" y="-30"/>
      <point x="184" y="0" type="curve"/>
      <point x="243" y="0" type="line"/>
      <point x="187" y="-41"/>
      <point x="162" y="-68"/>
      <point x="160" y="-102" type="curve" smooth="yes"/>
      <point x="158" y="-123"/>
      <point x="172" y="-138"/>
      <point x="204" y="-138" type="curve" smooth="yes"/>
      <point x="229" y="-138"/>
      <point x="253" y="-133"/>
      <point x="287" y="-118" type="curve"/>
    </contour>
  </outline>
</glyph>
<glyph name="tilde" format="1">
  <advance width="500"/>
  <unicode hex="02DC"/>
  <outline>
    <contour>
      <point x="521" y="728" type="line"/>
      <point x="505" y="635"/>
      <point x="462" y="592"/>
      <point x="402" y="592" type="curve" smooth="yes"/>
      <point x="335" y="592"/>
      <point x="286" y="650"/>
      <point x="246" y="650" type="curve" smooth="yes"/>
      <point x="224" y="650"/>
      <point x="209" y="636"/>
      <point x="197" y="595" type="curve"/>
      <point x="126" y="595" type="line"/>
      <point x="143" y="687"/>
      <point x="185" y="731"/>
      <point x="245" y="731" type="curve" smooth="yes"/>
      <point x="312" y="731"/>
      <point x="362" y="673"/>
      <point x="402" y="673" type="curve" smooth="yes"/>
      <point x="424" y="673"/>
      <point x="438" y="687"/>
      <point x="450" y="728" type="curve"/>
    </contour>
  </outline>
</glyph>
<glyph name="hungarumlaut" format="1">
  <advance width="500"/>
  <unicode hex="02DD"/>
  <outline>
    <contour>
      <point x="588" y="755" type="line"/>
      <point x="395" y="595" type="line"/>
      <point x="313" y="595" type="line"/>
      <point x="448" y="755" type="line"/>
    </contour>
    <contour>
      <point x="383" y="755" type="line"/>
      <point x="190" y="595" type="line"/>
      <point x="108" y="595" type="line"/>
      <point x="243" y="755" type="line"/>
    </contour>
  </outline>
</glyph>
<glyph name="endash" format="1">
  <advance width="460"/>
  <unicode hex="2013"/>
  <outline>
    <contour>
      <point x="415" y="318" type="line"/>
      <point x="65" y="318" type="line"/>
      <point x="82" y="414" type="line"/>
      <point x="432" y="414" type="line"/>
    </contour>
  </outline>
</glyph>
<glyph name="emdash" format="1">
  <advance width="620"/>
  <unicode hex="2014"/>
  <outline>
    <contour>
      <point x="575" y="318" type="line"/>
      <point x="65" y="318" type="line"/>
      <point x="81" y="414" type="line"/>
      <point x="591" y="414" type="line"/>
    </contour>
  </outline>
</glyph>
<glyph name="quoteright" format="1">
  <advance width="265"/>
  <unicode hex="2019"/>
  <unicode hex="02BC"/>
  <outline>
    <contour>
      <point x="287" y="700" type="line"/>
      <point x="166" y="449" type="line"/>
      <point x="97" y="449" type="line"/>
      <point x="156" y="700" type="line"/>
    </contour>
  </outline>
</glyph>
<glyph name="quotesinglbase" format="1">
  <advance width="265"/>
  <unicode hex="201A"/>
  <outline>
    <contour>
      <point x="189" y="139" type="line"/>
      <point x="69" y="-112" type="line"/>
      <point x="0" y="-112" type="line"/>
      <point x="58" y="139" type="line"/>
    </contour>
  </outline>
</glyph>
<glyph name="quotedblleft" format="1">
  <advance width="500"/>
  <unicode hex="201C"/>
  <outline>
    <contour>
      <point x="512" y="700" type="line"/>
      <point x="454" y="449" type="line"/>
      <point x="323" y="449" type="line"/>
      <point x="443" y="700" type="line"/>
    </contour>
    <contour>
      <point x="277" y="700" type="line"/>
      <point x="219" y="449" type="line"/>
      <point x="88" y="449" type="line"/>
      <point x="208" y="700" type="line"/>
    </contour>
  </outline>
</glyph>
<glyph name="quotedblright" format="1">
  <advance width="500"/>
  <unicode hex="201D"/>
  <outline>
    <contour>
      <point x="522" y="700" type="line"/>
      <point x="402" y="449" type="line"/>
      <point x="333" y="449" type="line"/>
      <point x="391" y="700" type="line"/>
    </contour>
    <contour>
      <point x="287" y="700" type="line"/>
      <point x="167" y="449" type="line"/>
      <point x="98" y="449" type="line"/>
      <point x="156" y="700" type="line"/>
    </contour>
  </outline>
</glyph>
<glyph name="quotedblbase" format="1">
  <advance width="500"/>
  <unicode hex="201E"/>
  <outline>
    <contour>
      <point x="423" y="139" type="line"/>
      <point x="302" y="-112" type="line"/>
      <point x="233" y="-112" type="line"/>
      <point x="292" y="139" type="line"/>
    </contour>
    <contour>
      <point x="188" y="139" type="line"/>
      <point x="67" y="-112" type="line"/>
      <point x="-2" y="-112" type="line"/>
      <point x="57" y="139" type="line"/>
    </contour>
  </outline>
</glyph>
<glyph name="dagger" format="1">
  <advance width="590"/>
  <unicode hex="2020"/>
  <outline>
    <contour>
      <point x="553" y="380" type="line"/>
      <point x="367" y="380" type="line"/>
      <point x="282" y="-100" type="line"/>
      <point x="180" y="-100" type="line"/>
      <point x="265" y="380" type="line"/>
      <point x="73" y="380" type="line"/>
      <point x="90" y="477" type="line"/>
      <point x="282" y="477" type="line"/>
      <point x="322" y="700" type="line"/>
      <point x="424" y="700" type="line"/>
      <point x="384" y="477" type="line"/>
      <point x="570" y="477" type="line"/>
    </contour>
  </outline>
</glyph>
<glyph name="daggerdbl" format="1">
  <advance width="590"/>
  <unicode hex="2021"/>
  <outline>
    <contour>
      <point x="511" y="123" type="line"/>
      <point x="322" y="123" type="line"/>
      <point x="282" y="-100" type="line"/>
      <point x="180" y="-100" type="line"/>
      <point x="220" y="123" type="line"/>
      <point x="31" y="123" type="line"/>
      <point x="48" y="220" type="line"/>
      <point x="237" y="220" type="line"/>
      <point x="265" y="380" type="line"/>
      <point x="76" y="380" type="line"/>
      <point x="93" y="477" type="line"/>
      <point x="282" y="477" type="line"/>
      <point x="322" y="700" type="line"/>
      <point x="424" y="700" type="line"/>
      <point x="384" y="477" type="line"/>
      <point x="573" y="477" type="line"/>
      <point x="556" y="380" type="line"/>
      <point x="367" y="380" type="line"/>
      <point x="339" y="220" type="line"/>
      <point x="528" y="220" type="line"/>
    </contour>
  </outline>
</glyph>
<glyph name="ellipsis" format="1">
  <advance width="762"/>
  <unicode hex="2026"/>
  <outline>
    <contour>
      <point x="679" y="68" type="curve" smooth="yes"/>
      <point x="679" y="25"/>
      <point x="643" y="-11"/>
      <point x="600" y="-11" type="curve" smooth="yes"/>
      <point x="557" y="-11"/>
      <point x="521" y="25"/>
      <point x="521" y="68" type="curve" smooth="yes"/>
      <point x="521" y="111"/>
      <point x="557" y="148"/>
      <point x="600" y="148" type="curve" smooth="yes"/>
      <point x="643" y="148"/>
      <point x="679" y="111"/>
    </contour>
    <contour>
      <point x="425" y="68" type="curve" smooth="yes"/>
      <point x="425" y="25"/>
      <point x="389" y="-11"/>
      <point x="346" y="-11" type="curve" smooth="yes"/>
      <point x="303" y="-11"/>
      <point x="267" y="25"/>
      <point x="267" y="68" type="curve" smooth="yes"/>
      <point x="267" y="111"/>
      <point x="303" y="148"/>
      <point x="346" y="148" type="curve" smooth="yes"/>
      <point x="389" y="148"/>
      <point x="425" y="111"/>
    </contour>
    <contour>
      <point x="171" y="68" type="curve" smooth="yes"/>
      <point x="171" y="25"/>
      <point x="135" y="-11"/>
      <point x="92" y="-11" type="curve" smooth="yes"/>
      <point x="49" y="-11"/>
      <point x="13" y="25"/>
      <point x="13" y="68" type="curve" smooth="yes"/>
      <point x="13" y="111"/>
      <point x="49" y="148"/>
      <point x="92" y="148" type="curve" smooth="yes"/>
      <point x="135" y="148"/>
      <point x="171" y="111"/>
    </contour>
  </outline>
</glyph>
<glyph name="guilsinglleft" format="1">
  <advance width="366"/>
  <unicode hex="2039"/>
  <outline>
    <contour>
      <point x="280" y="0" type="line"/>
      <point x="169" y="0" type="line"/>
      <point x="30" y="262" type="line"/>
      <point x="261" y="525" type="line"/>
      <point x="372" y="525" type="line"/>
      <point x="146" y="263" type="line"/>
    </contour>
  </outline>
</glyph>
<glyph name="guilsinglright" format="1">
  <advance width="366"/>
  <unicode hex="203A"/>
  <outline>
    <contour>
      <point x="336" y="263" type="line"/>
      <point x="105" y="0" type="line"/>
      <point x="-6" y="0" type="line"/>
      <point x="220" y="262" type="line"/>
      <point x="86" y="525" type="line"/>
      <point x="197" y="525" type="line"/>
    </contour>
  </outline>
</glyph>
<glyph name="fraction" format="1">
  <advance width="473"/>
  <unicode hex="2044"/>
  <outline>
    <contour>
      <point x="607" y="700" type="line"/>
      <point x="14" y="0" type="line"/>
      <point x="-102" y="0" type="line"/>
      <point x="491" y="700" type="line"/>
    </contour>
  </outline>
</glyph>
<glyph name="Euro" format="1">
  <advance width="610"/>
  <unicode hex="20AC"/>
  <outline>
    <contour>
      <point x="175" y="390" type="line"/>
      <point x="170" y="366"/>
      <point x="166" y="341"/>
      <point x="164" y="314" type="curve"/>
      <point x="415" y="314" type="line"/>
      <point x="400" y="232" type="line"/>
      <point x="166" y="232" type="line"/>
      <point x="180" y="141"/>
      <point x="232" y="91"/>
      <point x="312" y="91" type="curve" smooth="yes"/>
      <point x="375" y="91"/>
      <point x="421" y="131"/>
      <point x="466" y="182" type="curve"/>
      <point x="541" y="117" type="line"/>
      <point x="478" y="39"/>
      <point x="403" y="-11"/>
      <point x="302" y="-11" type="curve" smooth="yes"/>
      <point x="149" y="-11"/>
      <point x="61" y="110"/>
      <point x="61" y="267" type="curve" smooth="yes"/>
      <point x="61" y="532"/>
      <point x="206" y="711"/>
      <point x="392" y="711" type="curve" smooth="yes"/>
      <point x="509" y="711"/>
      <point x="572" y="650"/>
      <point x="607" y="551" type="curve"/>
      <point x="513" y="507" type="line"/>
      <point x="486" y="571"/>
      <point x="451" y="609"/>
      <point x="380" y="609" type="curve" smooth="yes"/>
      <point x="311" y="609"/>
      <point x="243" y="558"/>
      <point x="202" y="472" type="curve"/>
      <point x="443" y="472" type="line"/>
      <point x="428" y="390" type="line"/>
    </contour>
  </outline>
</glyph>
<glyph name="uni2117" format="1">
  <advance width="836"/>
  <unicode hex="2117"/>
  <outline>
    <contour>
      <point x="783" y="350" type="curve" smooth="yes"/>
      <point x="783" y="145"/>
      <point x="627" y="-11"/>
      <point x="422" y="-11" type="curve" smooth="yes"/>
      <point x="217" y="-11"/>
      <point x="61" y="145"/>
      <point x="61" y="350" type="curve" smooth="yes"/>
      <point x="61" y="555"/>
      <point x="217" y="711"/>
      <point x="422" y="711" type="curve" smooth="yes"/>
      <point x="627" y="711"/>
      <point x="783" y="555"/>
    </contour>
    <contour>
      <point x="725" y="350" type="curve" smooth="yes"/>
      <point x="725" y="522"/>
      <point x="594" y="653"/>
      <point x="422" y="653" type="curve" smooth="yes"/>
      <point x="250" y="653"/>
      <point x="119" y="522"/>
      <point x="119" y="350" type="curve" smooth="yes"/>
      <point x="119" y="178"/>
      <point x="250" y="47"/>
      <point x="422" y="47" type="curve" smooth="yes"/>
      <point x="594" y="47"/>
      <point x="725" y="178"/>
    </contour>
    <contour>
      <point x="598" y="423" type="curve" smooth="yes"/>
      <point x="598" y="340"/>
      <point x="543" y="297"/>
      <point x="465" y="297" type="curve" smooth="yes"/>
      <point x="371" y="297" type="line"/>
      <point x="371" y="153" type="line"/>
      <point x="304" y="153" type="line"/>
      <point x="304" y="547" type="line"/>
      <point x="469" y="547" type="line" smooth="yes"/>
      <point x="538" y="547"/>
      <point x="598" y="504"/>
    </contour>
    <contour>
      <point x="530" y="423" type="curve" smooth="yes"/>
      <point x="530" y="462"/>
      <point x="505" y="482"/>
      <point x="468" y="482" type="curve" smooth="yes"/>
      <point x="371" y="482" type="line"/>
      <point x="371" y="361" type="line"/>
      <point x="468" y="361" type="line" smooth="yes"/>
      <point x="509" y="361"/>
      <point x="530" y="384"/>
    </contour>
  </outline>
</glyph>
<glyph name="trademark" format="1">
  <advance width="770"/>
  <unicode hex="2122"/>
  <outline>
    <contour>
      <point x="376" y="634" type="line"/>
      <point x="264" y="634" type="line"/>
      <point x="206" y="306" type="line"/>
      <point x="139" y="306" type="line"/>
      <point x="197" y="634" type="line"/>
      <point x="85" y="634" type="line"/>
      <point x="96" y="700" type="line"/>
      <point x="387" y="700" type="line"/>
    </contour>
    <contour>
      <point x="736" y="306" type="line"/>
      <point x="672" y="306" type="line"/>
      <point x="708" y="514" type="line" smooth="yes"/>
      <point x="710" y="528"/>
      <point x="714" y="545"/>
      <point x="716" y="559" type="curve"/>
      <point x="709" y="547"/>
      <point x="701" y="533"/>
      <point x="693" y="520" type="curve" smooth="yes"/>
      <point x="556" y="294" type="line"/>
      <point x="499" y="520" type="line" smooth="yes"/>
      <point x="496" y="533"/>
      <point x="493" y="547"/>
      <point x="490" y="558" type="curve"/>
      <point x="489" y="544"/>
      <point x="485" y="527"/>
      <point x="483" y="514" type="curve" smooth="yes"/>
      <point x="447" y="306" type="line"/>
      <point x="383" y="306" type="line"/>
      <point x="452" y="700" type="line"/>
      <point x="519" y="700" type="line"/>
      <point x="572" y="496" type="line" smooth="yes"/>
      <point x="576" y="480"/>
      <point x="580" y="457"/>
      <point x="584" y="442" type="curve"/>
      <point x="593" y="458"/>
      <point x="603" y="478"/>
      <point x="614" y="496" type="curve" smooth="yes"/>
      <point x="737" y="700" type="line"/>
      <point x="805" y="700" type="line"/>
    </contour>
  </outline>
</glyph>
<glyph name="arrowup" format="1">
  <advance width="410"/>
  <unicode hex="2191"/>
  <outline>
    <contour>
      <point x="347" y="495" type="curve" smooth="yes"/>
      <point x="341" y="486"/>
      <point x="334" y="483"/>
      <point x="323" y="486" type="curve" smooth="yes"/>
      <point x="255" y="507" type="line"/>
      <point x="255" y="0" type="line"/>
      <point x="155" y="0" type="line"/>
      <point x="155" y="507" type="line"/>
      <point x="88" y="486" type="line" smooth="yes"/>
      <point x="76" y="482"/>
      <point x="69" y="486"/>
      <point x="63" y="495" type="curve" smooth="yes"/>
      <point x="60" y="499"/>
      <point x="60" y="508"/>
      <point x="65" y="517" type="curve"/>
      <point x="205" y="715" type="line"/>
      <point x="344" y="516" type="line" smooth="yes"/>
      <point x="350" y="507"/>
      <point x="350" y="499"/>
    </contour>
  </outline>
</glyph>
<glyph name="arrowupdn" format="1">
  <advance width="410"/>
  <unicode hex="2195"/>
  <outline>
    <contour>
      <point x="347" y="205" type="curve" smooth="yes"/>
      <point x="350" y="201"/>
      <point x="350" y="193"/>
      <point x="344" y="184" type="curve" smooth="yes"/>
      <point x="205" y="-15" type="line"/>
      <point x="65" y="184" type="line"/>
      <point x="60" y="193"/>
      <point x="60" y="201"/>
      <point x="63" y="205" type="curve" smooth="yes"/>
      <point x="69" y="214"/>
      <point x="76" y="218"/>
      <point x="88" y="214" type="curve" smooth="yes"/>
      <point x="155" y="193" type="line"/>
      <point x="155" y="507" type="line"/>
      <point x="88" y="486" type="line" smooth="yes"/>
      <point x="76" y="482"/>
      <point x="69" y="486"/>
      <point x="63" y="495" type="curve" smooth="yes"/>
      <point x="60" y="499"/>
      <point x="60" y="508"/>
      <point x="65" y="517" type="curve"/>
      <point x="205" y="715" type="line"/>
      <point x="344" y="516" type="line" smooth="yes"/>
      <point x="350" y="507"/>
      <point x="350" y="499"/>
      <point x="347" y="495" type="curve" smooth="yes"/>
      <point x="341" y="486"/>
      <point x="334" y="483"/>
      <point x="323" y="486" type="curve" smooth="yes"/>
      <point x="255" y="507" type="line"/>
      <point x="255" y="193" type="line"/>
      <point x="323" y="214" type="line" smooth="yes"/>
      <point x="334" y="217"/>
      <point x="341" y="214"/>
    </contour>
  </outline>
</glyph>
<glyph name="radical" format="1">
  <advance width="620"/>
  <unicode hex="221A"/>
  <outline>
    <contour>
      <point x="654" y="700" type="line"/>
      <point x="268" y="0" type="line"/>
      <point x="153" y="0" type="line"/>
      <point x="51" y="340" type="line"/>
      <point x="158" y="340" type="line"/>
      <point x="184" y="244" type="line" smooth="yes"/>
      <point x="194" y="208"/>
      <point x="217" y="130"/>
      <point x="222" y="99" type="curve"/>
      <point x="237" y="130"/>
      <point x="267" y="193"/>
      <point x="296" y="248" type="curve" smooth="yes"/>
      <point x="539" y="700" type="line"/>
    </contour>
  </outline>
</glyph>
<glyph name="apple" format="1">
  <advance width="760"/>
  <unicode hex="F8FF"/>
  <outline>
    <contour>
      <point x="740" y="346" type="line"/>
      <point x="573" y="220" type="line"/>
      <point x="566" y="216"/>
      <point x="559" y="216"/>
      <point x="556" y="218" type="curve" smooth="yes"/>
      <point x="549" y="223"/>
      <point x="545" y="228"/>
      <point x="549" y="236" type="curve"/>
      <point x="572" y="302" type="line"/>
      <point x="425" y="302" type="line"/>
      <point x="425" y="153" type="line"/>
      <point x="490" y="176" type="line" smooth="yes"/>
      <point x="499" y="179"/>
      <point x="504" y="176"/>
      <point x="509" y="169" type="curve"/>
      <point x="511" y="165"/>
      <point x="511" y="159"/>
      <point x="507" y="152" type="curve"/>
      <point x="381" y="-15" type="line"/>
      <point x="255" y="152" type="line"/>
      <point x="251" y="159"/>
      <point x="250" y="165"/>
      <point x="252" y="169" type="curve"/>
      <point x="258" y="176"/>
      <point x="263" y="179"/>
      <point x="272" y="176" type="curve" smooth="yes"/>
      <point x="337" y="153" type="line"/>
      <point x="337" y="302" type="line"/>
      <point x="188" y="302" type="line"/>
      <point x="211" y="236" type="line"/>
      <point x="215" y="228"/>
      <point x="211" y="223"/>
      <point x="204" y="218" type="curve" smooth="yes"/>
      <point x="201" y="216"/>
      <point x="194" y="216"/>
      <point x="187" y="220" type="curve"/>
      <point x="20" y="346" type="line"/>
      <point x="187" y="472" type="line"/>
      <point x="194" y="476"/>
      <point x="201" y="477"/>
      <point x="204" y="475" type="curve"/>
      <point x="211" y="469"/>
      <point x="214" y="464"/>
      <point x="211" y="455" type="curve" smooth="yes"/>
      <point x="188" y="390" type="line"/>
      <point x="337" y="390" type="line"/>
      <point x="337" y="547" type="line"/>
      <point x="272" y="524" type="line" smooth="yes"/>
      <point x="263" y="521"/>
      <point x="258" y="524"/>
      <point x="252" y="531" type="curve"/>
      <point x="250" y="534"/>
      <point x="251" y="541"/>
      <point x="255" y="548" type="curve"/>
      <point x="381" y="715" type="line"/>
      <point x="507" y="548" type="line"/>
      <point x="511" y="541"/>
      <point x="511" y="534"/>
      <point x="509" y="531" type="curve" smooth="yes"/>
      <point x="504" y="524"/>
      <point x="499" y="521"/>
      <point x="490" y="524" type="curve" smooth="yes"/>
      <point x="425" y="547" type="line"/>
      <point x="425" y="390" type="line"/>
      <point x="572" y="390" type="line"/>
      <point x="549" y="455" type="line" smooth="yes"/>
      <point x="546" y="464"/>
      <point x="549" y="469"/>
      <point x="556" y="475" type="curve"/>
      <point x="559" y="477"/>
      <point x="566" y="476"/>
      <point x="573" y="472" type="curve"/>
    </contour>
  </outline>
</glyph>
<glyph name="fi" format="1">
  <advance width="623"/>
  <unicode hex="FB01"/>
  <outline>
    <contour>
      <point x="622" y="659" type="curve" smooth="yes"/>
      <point x="622" y="623"/>
      <point x="593" y="593"/>
      <point x="558" y="593" type="curve" smooth="yes"/>
      <point x="522" y="593"/>
      <point x="493" y="623"/>
      <point x="493" y="659" type="curve" smooth="yes"/>
      <point x="493" y="696"/>
      <point x="522" y="726"/>
      <point x="558" y="726" type="curve" smooth="yes"/>
      <point x="593" y="726"/>
      <point x="622" y="696"/>
    </contour>
    <contour>
      <point x="399" y="709" type="curve"/>
      <point x="384" y="623" type="line"/>
      <point x="371" y="630"/>
      <point x="351" y="636"/>
      <point x="327" y="636" type="curve" smooth="yes"/>
      <point x="290" y="636"/>
      <point x="277" y="619"/>
      <point x="270" y="581" type="curve" smooth="yes"/>
      <point x="260" y="525" type="line"/>
      <point x="353" y="525" type="line"/>
      <point x="336" y="429" type="line"/>
      <point x="243" y="429" type="line"/>
      <point x="167" y="0" type="line"/>
      <point x="64" y="0" type="line"/>
      <point x="140" y="429" type="line"/>
      <point x="72" y="429" type="line"/>
      <point x="89" y="525" type="line"/>
      <point x="157" y="525" type="line"/>
      <point x="169" y="592" type="line" smooth="yes"/>
      <point x="187" y="691"/>
      <point x="234" y="726"/>
      <point x="316" y="726" type="curve" smooth="yes"/>
      <point x="353" y="726"/>
      <point x="381" y="718"/>
    </contour>
    <contour>
      <point x="588" y="525" type="line"/>
      <point x="496" y="0" type="line"/>
      <point x="393" y="0" type="line"/>
      <point x="485" y="525" type="line"/>
    </contour>
  </outline>
</glyph>
<glyph name="fl" format="1">
  <advance width="623"/>
  <unicode hex="FB02"/>
  <outline>
    <contour>
      <point x="496" y="0" type="line"/>
      <point x="393" y="0" type="line"/>
      <point x="512" y="675" type="line"/>
      <point x="625" y="729" type="line"/>
    </contour>
    <contour>
      <point x="399" y="709" type="curve"/>
      <point x="384" y="623" type="line"/>
      <point x="371" y="630"/>
      <point x="351" y="636"/>
      <point x="327" y="636" type="curve" smooth="yes"/>
      <point x="290" y="636"/>
      <point x="277" y="619"/>
      <point x="270" y="581" type="curve" smooth="yes"/>
      <point x="260" y="525" type="line"/>
      <point x="353" y="525" type="line"/>
      <point x="336" y="429" type="line"/>
      <point x="243" y="429" type="line"/>
      <point x="167" y="0" type="line"/>
      <point x="64" y="0" type="line"/>
      <point x="140" y="429" type="line"/>
      <point x="72" y="429" type="line"/>
      <point x="89" y="525" type="line"/>
      <point x="157" y="525" type="line"/>
      <point x="169" y="592" type="line" smooth="yes"/>
      <point x="187" y="691"/>
      <point x="234" y="726"/>
      <point x="316" y="726" type="curve" smooth="yes"/>
      <point x="353" y="726"/>
      <point x="381" y="718"/>
    </contour>
  </outline>
</glyph>
<glyph name="bullet" format="1">
  <advance width="430"/>
  <outline>
    <contour>
      <point x="380" y="366" type="curve" smooth="yes"/>
      <point x="380" y="282"/>
      <point x="314" y="216"/>
      <point x="230" y="216" type="curve" smooth="yes"/>
      <point x="146" y="216"/>
      <point x="80" y="282"/>
      <point x="80" y="366" type="curve" smooth="yes"/>
      <point x="80" y="450"/>
      <point x="146" y="518"/>
      <point x="230" y="518" type="curve" smooth="yes"/>
      <point x="314" y="518"/>
      <point x="380" y="450"/>
    </contour>
  </outline>
</glyph>
<glyph name="macron" format="1">
  <advance width="500"/>
  <outline>
    <contour>
      <point x="451" y="610" type="line"/>
      <point x="171" y="610" type="line"/>
      <point x="186" y="700" type="line"/>
      <point x="466" y="700" type="line"/>
    </contour>
  </outline>
</glyph>
<glyph name="registered" format="1">
  <advance width="836"/>
  <outline>
    <contour>
      <point x="783" y="350" type="curve" smooth="yes"/>
      <point x="783" y="145"/>
      <point x="627" y="-11"/>
      <point x="422" y="-11" type="curve" smooth="yes"/>
      <point x="217" y="-11"/>
      <point x="61" y="145"/>
      <point x="61" y="350" type="curve" smooth="yes"/>
      <point x="61" y="555"/>
      <point x="217" y="711"/>
      <point x="422" y="711" type="curve" smooth="yes"/>
      <point x="627" y="711"/>
      <point x="783" y="555"/>
    </contour>
    <contour>
      <point x="725" y="350" type="curve" smooth="yes"/>
      <point x="725" y="522"/>
      <point x="594" y="653"/>
      <point x="422" y="653" type="curve" smooth="yes"/>
      <point x="250" y="653"/>
      <point x="119" y="522"/>
      <point x="119" y="350" type="curve" smooth="yes"/>
      <point x="119" y="178"/>
      <point x="250" y="47"/>
      <point x="422" y="47" type="curve" smooth="yes"/>
      <point x="594" y="47"/>
      <point x="725" y="178"/>
    </contour>
    <contour>
      <point x="587" y="435" type="curve" smooth="yes"/>
      <point x="587" y="373"/>
      <point x="554" y="334"/>
      <point x="503" y="319" type="curve"/>
      <point x="584" y="160" type="line"/>
      <point x="505" y="160" type="line"/>
      <point x="428" y="312" type="line"/>
      <point x="352" y="312" type="line"/>
      <point x="352" y="160" type="line"/>
      <point x="285" y="160" type="line"/>
      <point x="285" y="554" type="line"/>
      <point x="458" y="554" type="line" smooth="yes"/>
      <point x="528" y="554"/>
      <point x="587" y="517"/>
    </contour>
    <contour>
      <point x="519" y="433" type="curve" smooth="yes"/>
      <point x="519" y="470"/>
      <point x="492" y="489"/>
      <point x="456" y="489" type="curve" smooth="yes"/>
      <point x="352" y="489" type="line"/>
      <point x="352" y="377" type="line"/>
      <point x="456" y="377" type="line" smooth="yes"/>
      <point x="492" y="377"/>
      <point x="519" y="394"/>
    </contour>
  </outline>
</glyph>
